<svg xmlns="http://www.w3.org/2000/svg" width="512" height="512" viewBox="0 0 512 512"><path fill-rule="evenodd" clip-rule="evenodd" fill="#FCD996" d="M256 1C115.157 1 1.004 115.168 1.004 256c0 140.84 114.153 255 254.996 255 140.828 0 254.996-114.16 254.996-255C510.996 115.168 396.828 1 256 1z"/><path fill-rule="evenodd" clip-rule="evenodd" fill="#FFE8C4" d="M256 1C164.147 1 83.653 49.57 38.766 122.42h434.47C428.345 49.57 347.845 1 256 1z"/><path fill-rule="evenodd" clip-rule="evenodd" fill="#FCC463" d="M510.933 250.646H1.06C1.022 252.434 1 254.213 1 256c0 140.84 114.16 255 254.996 255C396.824 511 511 396.84 511 256c0-1.787-.037-3.566-.067-5.354z"/><path fill-rule="evenodd" clip-rule="evenodd" fill="#FF940A" d="M1.153 264.622C5.698 401.456 118.046 511 256 511c137.943 0 250.275-109.544 254.836-246.378H1.153z"/><path fill-rule="evenodd" clip-rule="evenodd" fill="#002914" d="M261.287 367.532v-66.924H249.95v116.364c-18.6-41.957-39.132-51.228-87.318-49.865 8.905 60.55 33.335 93.945 87.318 75.636v68.183c1.996.045 4.024.074 6.054.074 1.753 0 3.52-.03 5.283-.06V389.43c54.988 19.404 79.775-14.035 88.78-75.122-49.463-1.407-69.797 8.407-88.78 53.224zM118.11 421.82v-63.208h-6.163v36.35c-10.31-24.347-21.348-29.67-48.216-28.91 4.878 33.186 18.35 51.346 48.217 40.81v59.575c2.037 1.392 4.095 2.762 6.162 4.103v-34.713c29.325 9.933 42.59-8.198 47.44-41.094-26.183-.738-37.337 4.295-47.44 27.087z"/><path fill-rule="evenodd" clip-rule="evenodd" fill="#c30" d="M325.552 245.367c0-7.505-5.175-13.782-12.16-15.487 5.198-4.96 6.542-12.993 2.782-19.48-3.75-6.492-11.374-9.35-18.26-7.333 2.02-6.895-.84-14.512-7.328-18.265-6.504-3.753-14.53-2.405-19.497 2.785-1.69-6.977-7.976-12.152-15.47-12.152-7.5 0-13.793 5.175-15.483 12.152-4.967-5.19-12.993-6.53-19.49-2.785-6.482 3.753-9.35 11.377-7.334 18.265-6.887-2.01-14.512.84-18.26 7.334-3.754 6.486-2.41 14.52 2.78 19.48-6.977 1.705-12.152 7.982-12.152 15.487s5.176 13.775 12.153 15.48c-5.19 4.96-6.534 12.993-2.78 19.485 3.748 6.493 11.373 9.345 18.267 7.334-2.02 6.888.845 14.513 7.327 18.258 6.497 3.753 14.523 2.412 19.49-2.77 1.69 6.97 7.982 12.15 15.483 12.15 7.495 0 13.78-5.182 15.47-12.15 4.965 5.19 12.984 6.522 19.496 2.777 6.49-3.752 9.348-11.37 7.327-18.257 6.895 2.018 14.512-.84 18.26-7.342 3.76-6.49 2.417-14.525-2.78-19.484 6.984-1.703 12.16-7.973 12.16-15.48z"/><path fill-rule="evenodd" clip-rule="evenodd" fill="#FCD996" d="M255.576 220.625c-15.242 0-27.595 12.353-27.595 27.587 0 15.242 12.354 27.602 27.596 27.602 15.234 0 27.602-12.36 27.602-27.602 0-15.235-12.368-27.587-27.602-27.587z"/><path fill-rule="evenodd" clip-rule="evenodd" fill="#002914" d="M400.04 394.963v-36.35h-6.16v63.207c-10.1-22.784-21.26-27.825-47.43-27.088 4.832 32.896 18.115 51.034 47.43 41.094v34.713c2.08-1.342 4.124-2.712 6.16-4.104V406.87c29.874 10.527 43.34-7.626 48.22-40.82-26.864-.76-37.903 4.565-48.22 28.913z"/><path fill-rule="evenodd" clip-rule="evenodd" fill="#FCD996" d="M434.944 328.605c0-4.073-2.814-7.483-6.6-8.407 2.81-2.695 3.55-7.06 1.515-10.58-2.038-3.537-6.185-5.086-9.92-3.99 1.092-3.73-.457-7.88-3.986-9.92-3.526-2.04-7.893-1.31-10.577 1.513-.938-3.79-4.352-6.597-8.417-6.597-4.073 0-7.487 2.808-8.417 6.598-2.685-2.82-7.044-3.543-10.584-1.51-3.516 2.04-5.06 6.187-3.98 9.917-3.742-1.087-7.875.462-9.91 3.99-2.038 3.522-1.312 7.886 1.507 10.58-3.787.925-6.6 4.335-6.6 8.408 0 4.08 2.813 7.482 6.6 8.413-2.818 2.688-3.544 7.052-1.508 10.58 2.035 3.522 6.168 5.07 9.91 3.978-1.08 3.752.464 7.893 3.98 9.925 3.54 2.04 7.9 1.312 10.583-1.51.93 3.79 4.345 6.603 8.417 6.603 4.065 0 7.48-2.807 8.417-6.604 2.685 2.82 7.044 3.55 10.57 1.52 3.536-2.04 5.085-6.182 3.994-9.927 3.742 1.095 7.882-.446 9.92-3.983 2.035-3.53 1.294-7.893-1.517-10.58 3.786-.932 6.6-4.334 6.6-8.415z"/><path fill-rule="evenodd" clip-rule="evenodd" fill="#FC7D24" d="M396.943 315.165c-8.28 0-15.007 6.71-15.007 14.99 0 8.278 6.727 14.994 15.007 14.994 8.272 0 14.99-6.717 14.99-14.996 0-8.28-6.717-14.99-14.99-14.99z"/><path fill-rule="evenodd" clip-rule="evenodd" fill="#FCD996" d="M153.02 328.605c0-4.073-2.822-7.483-6.6-8.407 2.81-2.695 3.543-7.06 1.507-10.58-2.03-3.53-6.17-5.078-9.918-3.99 1.097-3.73-.45-7.88-3.988-9.92-3.525-2.03-7.885-1.31-10.57 1.513-.937-3.79-4.344-6.597-8.416-6.597-4.08 0-7.495 2.808-8.417 6.598-2.693-2.82-7.045-3.55-10.585-1.51-3.522 2.04-5.078 6.187-3.987 9.917-3.734-1.095-7.874.454-9.91 3.99-2.038 3.522-1.312 7.886 1.514 10.58-3.793.925-6.6 4.335-6.6 8.408 0 4.08 2.806 7.482 6.6 8.413-2.826 2.688-3.552 7.052-1.515 10.58 2.037 3.538 6.176 5.08 9.91 3.984-1.082 3.745.466 7.886 3.988 9.926 3.54 2.032 7.893 1.303 10.584-1.52.922 3.798 4.336 6.604 8.416 6.604 4.073 0 7.48-2.814 8.417-6.604 2.684 2.822 7.037 3.552 10.57 1.512 3.536-2.032 5.084-6.173 3.986-9.925 3.74 1.094 7.888-.455 9.917-3.977 2.037-3.53 1.303-7.893-1.508-10.58 3.777-.93 6.6-4.332 6.6-8.413z"/><path fill-rule="evenodd" clip-rule="evenodd" fill="#FC7D24" d="M115.057 315.165c-8.28 0-14.996 6.71-14.996 14.99 0 8.278 6.717 14.994 14.997 14.994 8.272 0 14.98-6.717 14.98-14.996 0-8.28-6.708-14.99-14.98-14.99z"/><path fill-rule="evenodd" clip-rule="evenodd" fill="#c30" d="M455.502 99.435c-.75-1.713-1.526-3.41-2.32-5.108-40.4-49.218-98.866-83.044-165.276-91.332 6.19 5.324 11.452 10.67 10.674 18.54-1.754 17.81-39.624 12.703-40.647 21.757 1.57 6.374 14.944 7.38 22.19 8.838 23.78 4.788 23.375 19.322 6.92 32.822-2.796 2.3-12.267 10.737-13.272 13.99-.952 2.98-.662 1.833.344 3.53 9.896 6.47 32.732-15.01 44.84-2.91 12.047 12.04-9.476 35.42-2.86 44.838 9.013 4.996 20.29-26.202 36.593-24.512 17.565 1.832 12.014 35.8 21.768 40.67 10.588-2.28 4.475-37.75 21.79-40.52 13.098-2.1 21.296 15.554 31.43 23.2.853.648 1.41 1.192 2.416 1.505 2.83.87 1.922.573 3.538-.342 6.132-9.53-14.814-32.754-2.818-44.75 6.46-6.462 15.84-3.49 24.692-.215z"/><path fill-rule="evenodd" clip-rule="evenodd" fill="#F27300" d="M320.28 9.183c-7.8 12.077-11.656 27.11-9.232 43.856 4.642 32.068 35.01 60.102 73.148 54.43 20.48-3.04 39.098-16.233 48.562-35.235-31-29.828-69.544-51.898-112.478-63.052z"/><path fill-rule="evenodd" clip-rule="evenodd" fill="#c30" d="M332.395 12.653c-6.992 9.345-11.81 23.455-9.538 38.733 3.92 26.292 28.22 48.883 59.686 44.273 17.673-2.592 33.805-14.707 40.975-31.9-26.206-22.85-57.14-40.437-91.123-51.107z"/></svg>