<svg xmlns="http://www.w3.org/2000/svg" width="136.833" height="136.834" viewBox="0 0 136.833 136.834"><style type="text/css"><![CDATA[
	.st0{fill:#AA865B;}
	.st1{fill:#49A0AE;}
	.st2{fill:#E0E0E0;}
	.st3{fill:#E23942;}
	.st4{fill:#E4DFD6;}
	.st5{fill:#E4E4E4;}
	.st6{fill:#4C3E30;}
	.st7{fill:#E7E7E7;}
	.st8{fill:#4D4946;}
	.st9{fill:#E84849;}
	.st10{fill:#E8E8DF;}
	.st11{fill:#E8E8E8;}
	.st12{fill:#E9E9EA;}
	.st13{fill:#818282;}
	.st14{fill:#828282;}
	.st15{fill:#B1C635;}
	.st16{fill:#857856;}
	.st17{fill:#B5DDE1;}
	.st18{fill:#B7C133;}
	.st19{fill:#89932C;}
	.st20{fill:#1E1B18;}
	.st21{fill:#ECECEC;}
	.st22{fill:#51473A;}
	.st23{fill:#EFEFEF;}
	.st24{fill:#524F49;}
	.st25{fill:#585550;}
	.st26{fill:#8CB23F;}
	.st27{fill:#202121;}
	.st28{fill:#8EC0C8;}
	.st29{fill:#F3F4F5;}
	.st30{fill:#5B4F3F;}
	.st31{fill:#5C9340;}
	.st32{fill:#C02026;}
	.st33{fill:#C0C0C0;}
	.st34{fill:#93793D;}
	.st35{fill:#939292;}
	.st36{fill:#C4E7ED;}
	.st37{opacity:0.5;}
	.st38{opacity:0.7;}
	.st39{opacity:0.8;}
	.st40{fill:#FFA300;}
	.st41{fill:#FFCE00;}
	.st42{fill:#FFFFFF;}
	.st43{fill:#65A844;}
	.st44{fill:#665C51;}
	.st45{fill:#67B8CB;}
	.st46{fill:#9BD7D9;}
	.st47{fill:#CDCCCB;}
	.st48{fill:#344E5D;}
	.st49{fill:#6B4E15;}
	.st50{fill:#6B7D35;}
	.st51{fill:#D2D2D2;}
	.st52{fill:#3A2F22;}
	.st53{fill:#3B342D;}
	.st54{fill:#D6EFF2;}
	.st55{fill:#D7D7D7;}
	.st56{fill:#3E8540;}
	.st57{fill:#D9E3E4;}
	.st58{fill:#A0D2DC;}
	.st59{fill:#A19F9F;}
	.st60{fill:#737373;}
	.st61{fill:#A2D4DE;}
	.st62{fill:#A2DADB;}
	.st63{fill:#73BFCB;}
	.st64{fill:#766959;}
	.st65{fill:#77746F;}
	.st66{fill:#77913B;}
	.st67{fill:#A6B232;}
	.st68{fill:#A8A7A7;}
	.st69{fill:#DFDFDF;}
	.st70{fill:#423528;}
	.st71{fill:#43B665;}
	.st72{fill:#444341;}
	.st73{fill:#453F38;}
]]></style><circle class="st10" cx="68.417" cy="68.417" r="68.41"/><path class="st15" d="M70.612 19.105C60.6 43.392 44.41 49.41 44.41 68.74c0 14.473 11.73 26.204 26.202 26.204s26.202-11.73 26.202-26.203c0-26.68-26.202-49.635-26.202-49.635z"/><path class="st56" d="M69.413 94.018c-1.225 10.276-4.915 22.726-15.446 25.053l3.354.02c10.526-2.325 14.218-14.76 15.446-25.033 0 0-3.332-.22-3.353-.04zM83.39 74.49c-3.504 5.15-7.156 9.118-9.533 11.484.15-2.513.232-5.308.258-8.292 1.336-1.627 5.652-7.068 7.307-11.343 1.965-5.083 3.258-18.512 3.258-18.512s-2.385 9.406-4.017 14.932c-.917 3.113-4.685 8.818-6.54 11.518-.02-4.36-.138-9.014-.315-13.684.648-1.32 3.108-6.405 4.05-9.537 1.09-3.62 1.67-13.124 1.67-13.124s-1.278 6.68-2.164 10.608c-.49 2.177-2.645 5.52-3.763 7.157-.818-17.713-2.31-34.24-2.31-34.24.935 14.062 1.17 26.086 1.033 36.102-1.42-1.68-3.985-4.91-4.58-7.028-1.105-3.928-2.697-10.61-2.697-10.61s.724 9.505 2.08 13.126c1.197 3.19 4.357 8.41 5.093 9.61-.11 3.915-.274 7.47-.472 10.67-1.948-2.392-6.553-8.235-7.74-11.437-2.017-5.413-5.04-14.654-5.04-14.654s2.124 13.324 4.46 18.275c1.913 4.054 6.516 9.06 8.127 10.747-.322 4.455-.697 8.104-1.048 10.96-2.84-3.008-9.367-10.157-11.225-14.213-3.173-6.92-8.045-18.776-8.045-18.776s4.086 17.31 7.638 23.592c2.7 4.773 8.526 10.4 11.173 12.83-.414 2.834-.718 4.264-.718 4.264.53-.224 3.344.068 3.344.068.35-1.295.627-2.947.84-4.873 1.723-1.728 6.823-6.96 9.823-11.31 3.65-5.293 8.7-20.332 8.7-20.332S87.207 68.88 83.39 74.49z"/></svg>