<svg xmlns="http://www.w3.org/2000/svg" width="512" height="512" viewBox="0 0 512 512"><path fill-rule="evenodd" clip-rule="evenodd" fill="#FA6800" d="M256 1C115.163 1 1 115.173 1 256c0 140.823 114.162 255 255 255 140.823 0 255-114.177 255-255C511 115.173 396.823 1 256 1z"/><path fill-rule="evenodd" clip-rule="evenodd" fill="#5C0703" d="M243.61 120.367l-59.974 59.982c-1.987 1.986-1.987 5.238 0 7.236 1.987 1.987 5.247 1.987 7.233 0l59.982-59.982c1.987-1.995 1.987-5.247 0-7.237-1.987-1.994-5.254-1.994-7.24 0zm84.755 59.983l-59.99-59.982c-1.987-1.995-5.24-1.995-7.233 0-1.987 1.99-1.987 5.243 0 7.237l59.982 59.982c1.995 1.987 5.247 1.987 7.24 0 1.988-2 1.988-5.25 0-7.237z"/><path fill-rule="evenodd" clip-rule="evenodd" fill="#fd0" d="M256 94.745c-13.737 0-24.87 11.13-24.87 24.858 0 13.733 11.133 24.866 24.87 24.866 13.73 0 24.862-11.134 24.862-24.867 0-13.73-11.133-24.858-24.862-24.858z"/><path fill-rule="evenodd" clip-rule="evenodd" fill="#fb0" d="M386.895 176.643H125.098c-11.26 0-20.466 9.21-20.466 20.48V338.98c0 11.275 9.206 20.48 20.466 20.48h261.797c11.26 0 20.474-9.205 20.474-20.48V197.124c0-11.272-9.214-20.48-20.475-20.48z"/><path fill-rule="evenodd" clip-rule="evenodd" fill="#FFEAA3" d="M360.52 204.154H151.48c-8.077 0-14.678 6.598-14.678 14.678v98.446c0 8.076 6.6 14.678 14.678 14.678h209.04c8.07 0 14.678-6.602 14.678-14.678v-98.446c0-8.08-6.61-14.678-14.677-14.678z"/><path fill="#5C0703" d="M210.635 248.428c-2.183-2.126-4.75-3.816-7.715-5.058-2.95-1.23-6.15-1.855-9.597-1.855-3.395 0-6.556.606-9.492 1.825-2.935 1.22-5.478 2.898-7.63 5.06-2.16 2.155-3.855 4.692-5.097 7.605-1.242 2.91-1.86 6.062-1.86 9.458 0 3.35.618 6.465 1.86 9.355 1.242 2.89 2.936 5.397 5.096 7.542 2.152 2.123 4.696 3.802 7.63 5.014 2.937 1.22 6.098 1.82 9.493 1.82 3.447 0 6.646-.616 9.597-1.85 2.966-1.243 5.532-2.93 7.715-5.06 2.175-2.138 3.892-4.644 5.156-7.534 1.266-2.89 1.898-6.015 1.898-9.356 0-3.35-.632-6.48-1.897-9.39-1.263-2.913-2.98-5.442-5.155-7.576zm-5.608 22.333c-.647 1.65-1.513 3.07-2.62 4.26-1.098 1.198-2.4 2.14-3.92 2.83-1.513.68-3.14 1.025-4.885 1.025-1.792 0-3.462-.347-5.013-1.024-1.566-.69-2.906-1.647-4.035-2.86-1.114-1.218-2.002-2.663-2.65-4.334-.646-1.68-.963-3.478-.963-5.404s.316-3.703.964-5.33c.647-1.633 1.513-3.04 2.62-4.233 1.098-1.194 2.415-2.135 3.95-2.823 1.537-.685 3.2-1.03 4.992-1.03 1.784 0 3.44.345 4.953 1.03 1.506.688 2.838 1.66 3.96 2.89 1.122 1.246 2.002 2.683 2.65 4.34.63 1.647.963 3.438.963 5.366-.002 1.88-.333 3.64-.966 5.298zm47.617-24.914c-.783-.64-1.61-1.182-2.484-1.61-.874-.44-1.852-.795-2.95-1.066-1.1-.28-2.365-.478-3.794-.595-1.416-.105-3.056-.17-4.878-.17h-15.01V288.3h11.216V273.92h5.028c3.26 0 5.916-.3 7.98-.89 2.06-.6 3.883-1.632 5.434-3.1 1.468-1.378 2.634-3.124 3.522-5.23.858-2.108 1.294-4.337 1.294-6.678 0-2.476-.46-4.764-1.377-6.875-.91-2.112-2.243-3.878-3.98-5.304zM239.5 263.603h-4.756V252.73h4.275c2.747 0 4.726.42 5.945 1.287 1.22.847 1.822 2.243 1.822 4.182 0 3.604-2.43 5.403-7.286 5.403zm83.528-21.197l.49 28.903-17.9-28.904h-10.04V288.3h11.214l-.482-27.866 17.75 27.865h10.183v-45.894h-11.215zM263.302 288.3h25.456v-10.313h-14.24v-7.843h13.833v-10.327h-13.833v-7.087h14.24v-10.323h-25.455V288.3z"/></svg>