<svg xmlns="http://www.w3.org/2000/svg" width="136.833" height="136.833" viewBox="0 0 136.833 136.833"><style type="text/css"><![CDATA[
	.st0{fill:#4699A1;}
	.st1{fill:#473C30;}
	.st2{fill:#AAAAAA;}
	.st3{fill-rule:evenodd;clip-rule:evenodd;fill:#D7AF8F;}
	.st4{fill:#49596B;}
	.st5{fill:#7D3719;}
	.st6{fill:#49A0AE;}
	.st7{fill:#AFAFA3;}
	.st8{fill:#E3AA24;}
	.st9{fill:#4ABC96;}
	.st10{fill:#181E1D;}
	.st11{fill:#E6BE20;}
	.st12{fill:#E79E2D;}
	.st13{fill:#E7E7D6;}
	.st14{fill:#E84849;}
	.st15{fill:#E9C29C;}
	.st16{fill:#E9E9EA;}
	.st17{fill:#807F7F;}
	.st18{fill:#809598;}
	.st19{fill:#81725B;}
	.st20{fill:#B1D4D7;}
	.st21{fill:#83CECA;}
	.st22{fill:#B58755;}
	.st23{fill:#B6B6B7;}
	.st24{fill:#1D8D45;}
	.st25{fill:#1D9E49;}
	.st26{fill:#ECE1D0;}
	.st27{fill:#ECEDEA;}
	.st28{fill:#B9B9BA;}
	.st29{fill:#EDC92C;}
	.st30{fill:#1FA85B;}
	.st31{fill:#526B70;}
	.st32{fill:#575757;}
	.st33{fill:#BB5538;}
	.st34{fill:#8C402B;}
	.st35{fill:#8C5228;}
	.st36{fill:#BC992F;}
	.st37{fill:#8D8D8D;}
	.st38{fill-rule:evenodd;clip-rule:evenodd;fill:#E8C790;}
	.st39{fill:#8E6E52;}
	.st40{fill:#202121;}
	.st41{fill:#202B2D;}
	.st42{fill-rule:evenodd;clip-rule:evenodd;fill:#E9C29C;}
	.st43{fill:#BF8A67;}
	.st44{fill:#21AC4B;}
	.st45{fill:#BFBEBE;}
	.st46{fill:#BFC1A9;}
	.st47{fill:#242D2B;}
	.st48{fill:#F37C2A;}
	.st49{fill:#27636D;}
	.st50{fill:#5B4F3F;}
	.st51{fill:#28333B;}
	.st52{fill:#F6DA66;}
	.st53{fill-rule:evenodd;clip-rule:evenodd;fill:#ECE1D0;}
	.st54{fill:#5E5F5E;}
	.st55{fill:url(#SVGID_1_);}
	.st56{fill:#C48F2C;}
	.st57{fill:#2A3633;}
	.st58{fill:#2A646E;}
	.st59{fill:#C5C3AE;}
	.st60{fill:#2B2B2A;}
	.st61{fill:#606060;}
	.st62{fill-rule:evenodd;clip-rule:evenodd;fill:#BEBEBE;}
	.st63{fill:#FFFFFF;}
	.st64{fill-rule:evenodd;clip-rule:evenodd;fill:#F2E8D3;}
	.st65{fill:#65A844;}
	.st66{fill-rule:evenodd;clip-rule:evenodd;fill:#F5DFB5;}
	.st67{fill:#CBCBC5;}
	.st68{fill:#9E7C5A;}
	.st69{fill:#9E9F9F;}
	.st70{fill:#CDCCCB;}
	.st71{fill:#CDCDCE;}
	.st72{fill:#9F77AA;}
	.st73{fill:#327477;}
	.st74{fill:#333738;}
	.st75{fill:#343433;}
	.st76{fill:#344E5D;}
	.st77{fill:#357180;}
	.st78{fill:#36454F;}
	.st79{fill:#383939;}
	.st80{fill:#6C533E;}
	.st81{fill:#6CC077;}
	.st82{fill:#6D5D49;}
	.st83{fill:#6EC2CB;}
	.st84{fill:#6F8284;}
	.st85{fill:#028CA3;}
	.st86{fill:#D1962A;}
	.st87{fill:#D1AFD2;}
	.st88{fill:#036A7B;}
	.st89{fill:#039A88;}
	.st90{fill:#D3E8E9;}
	.st91{fill:#D5CEA9;}
	.st92{fill:#3B7F89;}
	.st93{fill:#D62127;}
	.st94{fill:#3C4D5B;}
	.st95{fill:#D7AE29;}
	.st96{fill:#D7B129;}
	.st97{fill:#D7D7BF;}
	.st98{fill:#D7D7D7;}
	.st99{fill:#D7DABA;}
	.st100{fill:#70BFC8;}
	.st101{fill:#A2D4DE;}
	.st102{fill:#A480B1;}
	.st103{fill:#A48A75;}
	.st104{fill:#786451;}
	.st105{fill:#DBF0F5;}
	.st106{fill:#797979;}
	.st107{fill:#DCDCC6;}
	.st108{fill:#DCDCD2;}
	.st109{fill:#DCDDD8;}
	.st110{fill:#DDDDDC;}
	.st111{fill:#DFBA24;}
	.st112{fill:#DFDFDF;}
	.st113{fill:#435364;}
	.st114{fill:#43B665;}
]]></style><circle class="st99" cx="68.416" cy="68.417" r="68.41"/><path class="st77" d="M87.812 61.76c0 1.26-1.02 2.28-2.28 2.28H51.56c-1.26 0-2.28-1.02-2.28-2.28V27.792c0-1.26 1.02-2.28 2.28-2.28H85.53c1.26 0 2.28 1.02 2.28 2.28V61.76z"/><path class="st27" d="M75.48 54.084l-1.29-3.386H63.222l-1.287 3.46c-.504 1.35-.934 2.26-1.29 2.732-.354.473-.937.71-1.747.71-.688 0-1.295-.253-1.822-.756s-.79-1.073-.79-1.71c0-.37.06-.75.183-1.143.122-.39.325-.937.606-1.637l6.902-17.52c.195-.504.432-1.108.71-1.814.274-.707.57-1.293.882-1.76s.725-.843 1.232-1.13c.51-.29 1.14-.434 1.887-.434.76 0 1.395.145 1.903.433.51.287.92.66 1.234 1.112.313.454.576.942.79 1.463.216.522.49 1.218.82 2.09l7.048 17.41c.553 1.324.828 2.288.828 2.89 0 .625-.26 1.198-.783 1.72-.52.52-1.148.782-1.885.782-.43 0-.8-.076-1.105-.23-.307-.152-.564-.36-.77-.626-.21-.262-.435-.667-.673-1.213-.24-.543-.446-1.025-.618-1.443zm-10.823-7.49h8.063L68.65 35.46l-3.993 11.135z"/><path class="st93" d="M67.52 101.988c0 1.26-1.024 2.28-2.282 2.28H31.27c-1.26 0-2.28-1.02-2.28-2.28V68.022c0-1.26 1.02-2.28 2.28-2.28H65.24c1.258 0 2.28 1.02 2.28 2.28v33.966z"/><path class="st27" d="M49.442 98.206h-8.244c-1.19 0-2.04-.267-2.55-.8-.51-.534-.763-1.384-.763-2.55v-20.28c0-1.19.26-2.046.78-2.568.522-.52 1.366-.78 2.532-.78h8.742c1.286 0 2.403.08 3.347.238.945.16 1.79.466 2.54.92.638.38 1.202.86 1.694 1.444.49.583.866 1.228 1.122 1.933.258.706.387 1.45.387 2.236 0 2.698-1.35 4.673-4.05 5.925 3.547 1.13 5.32 3.325 5.32 6.59 0 1.508-.39 2.866-1.16 4.075-.773 1.208-1.816 2.102-3.13 2.678-.82.344-1.767.586-2.833.727-1.067.14-2.31.21-3.735.21zm-6.09-22.876v6.976h5.005c1.363 0 2.414-.13 3.156-.387.742-.26 1.31-.75 1.703-1.473.307-.516.46-1.093.46-1.73 0-1.36-.485-2.268-1.454-2.715-.97-.448-2.447-.672-4.436-.672H43.35zm5.686 10.894H43.35V94.1h5.87c3.694 0 5.54-1.33 5.54-3.992 0-1.36-.48-2.35-1.436-2.963-.954-.612-2.386-.92-4.286-.92z"/><path class="st65" d="M108.104 101.988c0 1.26-1.02 2.28-2.28 2.28H71.857c-1.26 0-2.28-1.02-2.28-2.28V68.022c0-1.26 1.02-2.28 2.28-2.28h33.965c1.26 0 2.28 1.02 2.28 2.28v33.966z"/><path class="st27" d="M100.82 90.8c0 .86-.212 1.79-.634 2.79-.424 1-1.09 1.98-1.998 2.944-.908.964-2.066 1.745-3.477 2.347-1.41.603-3.056.902-4.933.902-1.424 0-2.717-.135-3.883-.404s-2.225-.69-3.174-1.26c-.953-.57-1.826-1.323-2.625-2.256-.71-.847-1.318-1.794-1.82-2.843-.504-1.05-.88-2.17-1.133-3.36-.25-1.19-.377-2.453-.377-3.79 0-2.172.316-4.117.95-5.835.63-1.718 1.534-3.187 2.712-4.408 1.18-1.22 2.56-2.15 4.14-2.788 1.585-.638 3.27-.958 5.064-.958 2.185 0 4.13.437 5.835 1.308s3.012 1.947 3.92 3.23c.906 1.28 1.36 2.493 1.36 3.634 0 .626-.22 1.178-.66 1.656s-.978.718-1.603.718c-.7 0-1.223-.166-1.574-.496-.35-.332-.738-.902-1.168-1.712-.713-1.338-1.55-2.337-2.512-3-.963-.662-2.15-.994-3.563-.994-2.244 0-4.033.853-5.363 2.56-1.332 1.704-1.998 4.128-1.998 7.27 0 2.097.295 3.842.883 5.234.59 1.393 1.424 2.433 2.504 3.12 1.08.687 2.345 1.03 3.792 1.03 1.57 0 2.898-.39 3.984-1.17s1.906-1.923 2.457-3.43c.232-.713.52-1.293.865-1.74.344-.448.896-.672 1.656-.672.65 0 1.21.228 1.674.68.47.455.703 1.02.703 1.693z"/></svg>