<svg width="100pt" height="100pt" viewBox="0 0 100 100" xmlns="http://www.w3.org/2000/svg"><path fill="#a88766" opacity=".98" d="M38.59 2.7C43.5 1.05 48.73.81 53.85 1.15l.39.57c.57.76 1.15 1.5 1.76 2.23-1.66-.02-3.31-.03-4.96 0 1.66 1.22 2.15 2.52.33 3.84 4.21 1.38-6.88 4.54-3.95-.59-3.08-2.07-1.54-1.85.82-3.31-4.36-1.96-6.82.7-9.29 3.28-.54-1.45-.68-2.96-.36-4.47z"/><path fill="#4a3c29" opacity=".48" d="M53.85 1.15c1.39-.63 3.06-.54 4.22.52-1.29.6-2.57.62-3.83.05l-.39-.57z"/><path fill="#bea379" d="M54.24 1.72c1.26.57 2.54.55 3.83-.05l.81.2c.28 2.22-.6 5.26 2.03 6.31 1.55-1.44 2.92-3.05 4.36-4.59.98.28 1.96.58 2.93.91-7.18 2.31 4.78 5.74.88.31 1.39.49 2.74 1.1 4 1.85-2.59 1.72-5.33 3.76-5.38 7.17-1.93-.96-3.74-2.16-5.72-3.03.93 2.53 2.52 4.88 4.9 6.24 1.78-1.49 5.46-3.12 2.14-5.12 2.32-.91 3.38-2.98 4.06-5.26 3.53 2.14 6.98 4.44 10.13 7.11-.09 3.04-.13 6.08-.31 9.12-2.16-1.61-3.98.01-5.04 1.98.88 1.45 3.73 1.06 3.13 3.42-2.2.33-3.91 2-3.74 4.3-3.07.58-4.69 3.93-.34 3.65-4.34 2.74-.2 7.43-2.67 10.98l-.38.71c-1.6-.25-3.19-.53-4.78-.83l-.79-.23c-.95-1.01-1.89-2.03-2.94-2.93-3.31-3.13-7.69-4.52-11.53-6.78 2.8-2.64 3.58-6.29 4.14-9.94 5.19-2.21-.87-5.46 3.63-7.68 4.83-1.9-1.21-5.8-2.57-8.45 1.86-2.35-1.92-5-3.02-7.14-.61-.73-1.19-1.47-1.76-2.23m17.27 16.41c.05 1.77.29 3.78.81 5.53 1.39-.71 1.57-5.87-.81-5.53m-4.38 7.92c.2 4.51-4.49 8.55-1.92 12.83 4.4 1.61 4.95-5.31 7.73.25 1.34-6.14-.73-10.18-5.81-13.08z"/><path fill="#907a52" d="M58.88 1.87l.96.22c-.49 4.56 1.17 4 3.45.91.5.15 1.49.44 1.98.59-1.44 1.54-2.81 3.15-4.36 4.59-2.63-1.05-1.75-4.09-2.03-6.31z"/><path fill="#d0bd97" opacity=".94" d="M59.84 2.09c1.17.26 2.32.56 3.45.91-2.28 3.09-3.94 3.65-3.45-.91z"/><path fill="#978460" d="M32.48 4.86c1.59-.62 3.22-1.17 4.84-1.72-1.04 2.31-3.71 6.13-4.84 1.72z"/><path fill="#d4bc97" opacity=".98" d="M37.32 3.14c.32-.11.96-.33 1.27-.44-.32 1.51-.18 3.02.36 4.47-.44.21-1.33.62-1.77.83-6.02-1.45-9.33 3.84-13.32 6.08 1.91-2.21 2.01-3.71-1.25-4.12 2.94-2.31 6.3-3.99 9.87-5.1 1.13 4.41 3.8.59 4.84-1.72z"/><path fill="#846140" d="M38.95 7.17c2.47-2.58 4.93-5.24 9.29-3.28-2.36 1.46-3.9 1.24-.82 3.31-2.93 5.13 8.16 1.97 3.95.59 1.82-1.32 1.33-2.62-.33-3.84 1.65-.03 3.3-.02 4.96 0 1.1 2.14 4.88 4.79 3.02 7.14-2.9-1.36-6.76 6.21-5.25.67.67-2.11-1.34.8-1.88 1.08C47.19 9.5 39.9 14.58 37.18 8c.44-.21 1.33-.62 1.77-.83z"/><path fill="#826b3f" d="M69.08 4.81c3.9 5.43-8.06 2-.88-.31l.88.31z"/><path fill="#ba9e76" d="M23.86 14.08c3.99-2.24 7.3-7.53 13.32-6.08 2.72 6.58 10.01 1.5 14.71 4.84-.26.56-.78 1.7-1.04 2.27-4.76-5.57-9.79 2.54-12.53 6.2-2.72 5.44-1.16 11.27 2.66 15.58-2.12 1.31-4.46 2.17-6.73 3.17-4.08-3.73-6.57-9.07-6.42-14.68-.27-1.33.87-4.31-1.5-3.17.19 7.03-7.57 8.65-5.31 15.98 2.58-5.69 8.55 1.3 11.43 3.02l-1.64 1.2c-.44.12-1.32.36-1.77.48-1.72-8.46-12.55 10.89-9.04-1.84-.11-4.7-.03-9.41-.4-14.1-1.5.62-2.81 1.78-4.45 1.99-1.78-1.65.5-7.41-3.19-4.99l-.12-4.08c3.1-3.79 6.82-7.05 10.77-9.91 3.26.41 3.16 1.91 1.25 4.12m5.35-1.82c-3.43 1.82-.79 5.84-2.27 8.83 1.31-2 5.93-7.89 2.27-8.83m1 6.9c-.74 3.07-1.54 8.5-.09 11.73 4.95-1.98-.61-2.87 2.77-5.63-3.73-.71 1.87-1.7-1.78-3.98 3.15-.35 1.84-3.58-.9-2.12z"/><path fill="#e6d1a4" d="M67.7 13.83c.05-3.41 2.79-5.45 5.38-7.17-.68 2.28-1.74 4.35-4.06 5.26 3.32 2-.36 3.63-2.14 5.12-2.38-1.36-3.97-3.71-4.9-6.24 1.98.87 3.79 2.07 5.72 3.03z"/><path fill="#cdb491" d="M51.89 12.84c.54-.28 2.55-3.19 1.88-1.08-1.51 5.54 2.35-2.03 5.25-.67 1.36 2.65 7.4 6.55 2.57 8.45-4.5 2.22 1.56 5.47-3.63 7.68-.93-4.85-2.51-9.6-7.11-12.11.26-.57.78-1.71 1.04-2.27m7.41 1.4c-5.41 2.8 2.59 3.46 0 0z"/><path fill="#e6d0ac" d="M29.21 12.26c3.66.94-.96 6.83-2.27 8.83 1.48-2.99-1.16-7.01 2.27-8.83z"/><path fill="#3a2622" d="M38.32 21.31c2.74-3.66 7.77-11.77 12.53-6.2 4.6 2.51 6.18 7.26 7.11 12.11-.56 3.65-1.34 7.3-4.14 9.94 3.84 2.26 8.22 3.65 11.53 6.78-5.88.11-4.34 6.51-4.95 10.77-1.82 4.72-4.58 10.24-2.3 15.21 1.09-.48 2.15-1.05 3.18-1.65.47-.26 1.4-.79 1.86-1.05 1.23.34 2.47.66 3.73.88.13-6.26.38-12.53.4-18.79.25-.61.77-1.83 1.02-2.44l.79.23c-.08 7-.1 14.01-.02 21.01-.07 4.41-4.09 10.1 2.63 10.3 2.39 1.16 4.91 1.97 7.5 2.54.99.46 1.98.93 2.95 1.41.4.21 1.18.61 1.57.81.61.3 1.83.91 2.44 1.21-.63.64-1.27 1.27-1.92 1.89-2.93.07-5.47-.07-2.15-2.45-4.16-.58-8.08.67-11.95 1.89-1.09-2.37-1.21-4.4 2.05-4.15-4.1-2.62-8.65.07-12.04 2.63-14.24 5.57-29.71-1.33-44.46.87-1.07-.99-2.12-2-3.1-3.07 4.86-2.37 10.17-3.57 15.28-5.25.64-1.65-1.62-2.6-2.48-3.74l-.4-6.71.07-.96c.66-3.82.91-7.67.75-11.55.14-2.03.27-4.07.35-6.1.3.36.91 1.08 1.21 1.44.34 4.43-.22 8.88.06 13.32-4.56 5.52 3.08 5.85 3.63 2.61 1.01-3.54 1.29-7.25 2.05-10.85.05-2.78.34-11.52 4.76-7-1.68 9.5 1.13 19.61 5.2 27.85 1.41 1.06 3.23 1.1 4.92 1.09 6.45-.17 4.2-7.7 7.78-11.24-1.34-6.78 3.72-14.89-2.08-20.66-7.7.21-15.22-1.43-22.87-1.83l1.64-1.2c.45-.29 1.35-.87 1.8-1.15 2.27-1 4.61-1.86 6.73-3.17-3.82-4.31-5.38-10.14-2.66-15.58m7.91-2.81c-2.8.43-6.45.9-7.11 4.21 4.92 2.02-.98 10.36 5.21 12.95 6.07 4.75 11.56-5.4 7.99-10.53 6.95-3.43-2.16-6.9-6.09-6.63m-.95 19.79c-5.51 2.2 2.39 1.89 4.7 1.65 1.03-3.09-2.96-1.9-4.7-1.65M34.09 55.94c.21 4.15-3.99 13.58 2.91 14.12-.57-4.41.47-10.87-2.91-14.12m19.26 19.44c-4.05 2.88-9.58.46-13.42 3.57-2.42-.91-4.56-1.16-5.34 1.8-3.9-.28-12.89-4.22-12.61 2.22 7.22-1.54 14.74 1.36 22.02 1.99 1.35-3.54-4.09-.57-3.98-2.94 1.82.24 16.24.36 9.92-2.3 2.57-1.41 5.01-4.13 8.19-2.83-.75-2.02-2.99-2.44-4.78-1.51z"/><path fill="#846e44" d="M59.3 14.24c2.59 3.46-5.41 2.8 0 0z"/><path fill="#875a3a" d="M83.21 13.77c2.4 2.14 4.53 4.57 6.61 7.02-1.97 1.59.16 3.61 2.11 3.24 1.1 1.56 2.23 3.12 2.99 4.87-1.02.4-2.04.82-3.06 1.24-1.88-1.74-3.74-3.51-5.65-5.21.4 3.01.41 6.04.28 9.06l-.03.85c-.3 4.79-.51 9.59-.31 14.39 0 2.71.02 5.42.08 8.13-.1 3.97-1.1 1.91-2.03-.56-.17-9.7-.4-19.39-1.54-29.03.03-1.63.14-3.25.24-4.88.18-3.04.22-6.08.31-9.12z"/><path fill="#624540" d="M46.23 18.5c3.93-.27 13.04 3.2 6.09 6.63 3.57 5.13-1.92 15.28-7.99 10.53-6.19-2.59-.29-10.93-5.21-12.95.66-3.31 4.31-3.78 7.11-4.21z"/><path fill="#fde4c0" d="M71.51 18.13c2.38-.34 2.2 4.82.81 5.53-.52-1.75-.76-3.76-.81-5.53z"/><path fill="#e7d1a8" d="M30.21 19.16c2.74-1.46 4.05 1.77.9 2.12 3.65 2.28-1.95 3.27 1.78 3.98-3.38 2.76 2.18 3.65-2.77 5.63-1.45-3.23-.65-8.66.09-11.73z"/><path fill="#6a482a" opacity=".97" d="M6.73 27.69c1.64-2.65 3.23-5.34 5.11-7.82l.12 4.08c-.02 1.58-.07 3.16-.16 4.75-1.34 1.59-2.02 3.55-2.55 5.53-.24-2.87 1.54-8.66-2.52-6.54z"/><path fill="#e2ba89" opacity=".96" d="M91.93 24.03c-1.95.37-4.08-1.65-2.11-3.24.92.93 1.56 2.06 2.11 3.24z"/><path fill="#dfc9a7" d="M26.33 22.21c2.37-1.14 1.23 1.84 1.5 3.17-.15 5.61 2.34 10.95 6.42 14.68-.45.28-1.35.86-1.8 1.15-2.88-1.72-8.85-8.71-11.43-3.02-2.26-7.33 5.5-8.95 5.31-15.98z"/><path fill="#dac396" d="M77.86 24.87c1.06-1.97 2.88-3.59 5.04-1.98-.1 1.63-.21 3.25-.24 4.88-.29 2.67-.63 5.33-.87 8 .16 4.57-.58 13.83-7.55 11.45 2.47-3.55-1.67-8.24 2.67-10.98-4.35.28-2.73-3.07.34-3.65-.17-2.3 1.54-3.97 3.74-4.3.6-2.36-2.25-1.97-3.13-3.42z"/><path fill="#d9c19b" d="M11.96 23.95c3.69-2.42 1.41 3.34 3.19 4.99 1.64-.21 2.95-1.37 4.45-1.99.37 4.69.29 9.4.4 14.1-3.51 12.73 7.32-6.62 9.04 1.84-1.3 1.16-4.1 1.7-3.46 3.94-2.05.3-3.64 1.65-5.2 2.91-1.27-.77-1.84.51-2.48 1.38-3.45-.74-2.98-3.64-1.3-5.94-1.81-1.13-3.81-2.14-4.53-4.33-.08-4.05-.17-8.1-.27-12.15.09-1.59.14-3.17.16-4.75z"/><path fill="#c19e6d" d="M86.21 24.93c1.91 1.7 3.77 3.47 5.65 5.21-.14 2.36-.26 4.73-.59 7.07-4.25-.51-1.68-8.63-4.78-3.22.13-3.02.12-6.05-.28-9.06z"/><path fill="#ddc7a0" d="M67.13 26.05c5.08 2.9 7.15 6.94 5.81 13.08-2.78-5.56-3.33 1.36-7.73-.25-2.57-4.28 2.12-8.32 1.92-12.83z"/><path fill="#d0b493" d="M6.73 27.69c4.06-2.12 2.28 3.67 2.52 6.54-.24 2.65-.39 5.31-.78 7.94-4-8.46.96 13.83-4.22 5.87.14-4.11 1.42-8.61-.55-12.45.78-2.71 1.56-5.47 3.03-7.9z"/><path fill="#b19076" d="M81.79 35.77c.24-2.67.58-5.33.87-8 1.14 9.64 1.37 19.33 1.54 29.03-.28.3-.84.89-1.12 1.19l-1.16.1c.11-7.44.04-14.88-.13-22.32z"/><path fill="#8d6a53" d="M9.25 34.23c.53-1.98 1.21-3.94 2.55-5.53.1 4.05.19 8.1.27 12.15.01 5.63.05 11.26-.17 16.89-4.34 4.49-1 13.78-2.06 20.38l-1.16-1.8c.18-3.54.75-7.16-.3-10.61-.21-2.48-.41-4.96-.6-7.43.18-5.37-.13-10.78.69-16.11.39-2.63.54-5.29.78-7.94z"/><path fill="#98755f" d="M91.86 30.14c1.02-.42 2.04-.84 3.06-1.24 2.2 5.33 4.21 10.79 5.08 16.51V57.1l-.82-.17c-.29-1.25.23-3.53-1.79-2.86-.19 4.41-2.38 8.82-.71 13.15-1.96 6.5-5.9 12.27-10.53 17.16-.61-.3-1.83-.91-2.44-1.21-.12-2.64.35-3.75 2.1-1.35 1.19-3.17 2.49-6.48 1.11-9.84 5.33 6.76 4.07-2.2 4.02-6.84.34-3.42.98-6.81 1.04-10.25-2.51.17-3 3.11-4.24 4.83-6.6 3.76.27 14.77-3.7 19.45-.22-7.06.46-14.2-.96-21.18.28-.3.84-.89 1.12-1.19.93 2.47 1.93 4.53 2.03.56 1.99-1.5 3.01-3.82 4.05-6 3.4 4.11 3.25-4.23-.8-3.58 1.22-3.34 2.52-6.98 1.79-10.57.33-2.34.45-4.71.59-7.07m4.24 12c-1.41 1.57-.47 6.73 1.79 3.67-.05-1.19-.33-3.68-1.79-3.67m1.12 7.07c-2.02.67-.69 2.3.51 3.02 1.93 3.05 2.25-5.34-.51-3.02z"/><path fill="#d8c091" d="M86.49 33.99c3.1-5.41.53 2.71 4.78 3.22.73 3.59-.57 7.23-1.79 10.57 4.05-.65 4.2 7.69.8 3.58-1.04 2.18-2.06 4.5-4.05 6-.06-2.71-.08-5.42-.08-8.13.65-3.43-.53-10.57 4.15-6.35-1.7-2.53-4.04-4.68-3.84-8.04l.03-.85z"/><path fill="#b19366" d="M86.15 49.23c-.2-4.8.01-9.6.31-14.39-.2 3.36 2.14 5.51 3.84 8.04-4.68-4.22-3.5 2.92-4.15 6.35z"/><path fill="#9a7f69" opacity=".96" d="M3.73 65.26C-.09 55.9.58 45.07 3.7 35.59c1.97 3.84.69 8.34.55 12.45-1.47 5.67-.99 11.47-.52 17.22z"/><path fill="#e7dbbe" d="M74.24 47.22c6.97 2.38 7.71-6.88 7.55-11.45.17 7.44.24 14.88.13 22.32-1.13-1.94-6.82-6.89-1.56-5.47-.88-1.5-2.66-1.93-4.07-2.77-.81-.65-1.62-1.29-2.43-1.92l.38-.71z"/><path fill="#6a514f" d="M45.28 38.29c1.74-.25 5.73-1.44 4.7 1.65-2.31.24-10.21.55-4.7-1.65z"/><path fill="#ddccb9" d="M4.25 48.04c5.18 7.96.22-14.33 4.22-5.87-.82 5.33-.51 10.74-.69 16.11-.96-1.49-1.84-3.02-2.78-4.52.43 3.66-.21 7.48.65 11.09.85 1.84 1.02 3.71-.37 5.33-.57-1.63-1.09-3.27-1.55-4.92-.47-5.75-.95-11.55.52-17.22z"/><path fill="#edd9bc" d="M12.07 40.85c.72 2.19 2.72 3.2 4.53 4.33-1.68 2.3-2.15 5.2 1.3 5.94-3.67 4.3-5.4 9.28-5.04 14.92-.35-.3-1.06-.9-1.41-1.21.11-1.77.34-5.32.45-7.09.22-5.63.18-11.26.17-16.89z"/><path fill="#543833" d="M29.04 42.89c.45-.12 1.33-.36 1.77-.48 7.65.4 15.17 2.04 22.87 1.83 5.8 5.77.74 13.88 2.08 20.66-3.58 3.54-1.33 11.07-7.78 11.24 2.48-3.16 2.77-7.27 3.26-11.1 2.68-5.31 7.04-14.98-1.97-16.08.39 5.55-1.96-.82-3.62 2.62-3.43-6.46-8.94 3.41-5.44 7.26 1.51 5.19 3.53 10.73 2.85 16.21-4.07-8.24-6.88-18.35-5.2-27.85-4.42-4.52-4.71 4.22-4.76 7 .44-4.12-2.58-11.94-5.74-5.08-.3-.36-.91-1.08-1.21-1.44l-.57-.85c-.64-2.24 2.16-2.78 3.46-3.94z"/><path fill="#602e1b" d="M96.1 42.14c1.46-.01 1.74 2.48 1.79 3.67-2.26 3.06-3.2-2.1-1.79-3.67z"/><path fill="#4f3a38" d="M60.4 54.71c.61-4.26-.93-10.66 4.95-10.77 1.05.9 1.99 1.92 2.94 2.93-.25.61-.77 1.83-1.02 2.44-1.09-1.09-2.14-2.23-3.25-3.29-4.01 6.28.28 14.38-.88 21.2-.46.26-1.39.79-1.86 1.05-.23-4.52-.08-9.09-.88-13.56z"/><path fill="#705851" d="M27.36 49.12c3.16-6.86 6.18.96 5.74 5.08-.76 3.6-1.04 7.31-2.05 10.85-.55 3.24-8.19 2.91-3.63-2.61-.28-4.44.28-8.89-.06-13.32z"/><path fill="#7b605a" d="M64.02 46.02c1.11 1.06 2.16 2.2 3.25 3.29-.02 6.26-.27 12.53-.4 18.79-1.26-.22-2.5-.54-3.73-.88 1.16-6.82-3.13-14.92.88-21.2z"/><path fill="#dadee4" d="M20.38 49.74c1.56-1.26 3.15-2.61 5.2-2.91l.57.85c-.08 2.03-.21 4.07-.35 6.1-.42 3.84-.67 7.69-.75 11.55l-.07.96c-.91-2.42-1.98-5-4.79-5.56-3.98-1.66 5.15-7.65-.4-4.92-3.3.08-2.85 5.79-5.8 4.36 1.83-3.65 4.51-6.8 6.39-10.43z"/><path fill="#c5cbd6" d="M69.08 47.1c1.59.3 3.18.58 4.78.83.81.63 1.62 1.27 2.43 1.92.82 4.56-4.75 7.79-2.38 12.32 2.78 3.58-3.03 3.81-4.85 5.94-.08-7-.06-14.01.02-21.01z"/><path fill="#918378" d="M17.9 51.12c.64-.87 1.21-2.15 2.48-1.38-1.88 3.63-4.56 6.78-6.39 10.43.58 2.6 1.15 5.32-1.06 7.36-1.44-.33-1.81-1.37-1.48-2.7.35.31 1.06.91 1.41 1.21-.36-5.64 1.37-10.62 5.04-14.92z"/><path fill="#785d58" d="M40.21 58.84c-3.5-3.85 2.01-13.72 5.44-7.26 1.66-3.44 4.01 2.93 3.62-2.62 9.01 1.1 4.65 10.77 1.97 16.08 1.11-3.68-1.28-7.82-5.02-7.94-4.92 3.86 1.82 17.68 5.02 7.94-.49 3.83-.78 7.94-3.26 11.1-1.69.01-3.51-.03-4.92-1.09.68-5.48-1.34-11.02-2.85-16.21z"/><path fill="#e4b784" d="M97.22 49.21c2.76-2.32 2.44 6.07.51 3.02-1.2-.72-2.53-2.35-.51-3.02z"/><path fill="#b3afb4" d="M76.29 49.85c1.41.84 3.19 1.27 4.07 2.77-5.26-1.42.43 3.53 1.56 5.47-1.12 8.35-1.64 16.79.22 24.27-.97-.48-1.96-.95-2.95-1.41-1.13-4.6-1.94-9.26-2.43-13.98-6.38-.29-6.43 7.06-5.07 11.44-6.72-.2-2.7-5.89-2.63-10.3 1.82-2.13 7.63-2.36 4.85-5.94-2.37-4.53 3.2-7.76 2.38-12.32z"/><path fill="#a39483" d="M5 53.76c.94 1.5 1.82 3.03 2.78 4.52.19 2.47.39 4.95.6 7.43-.85-.51-1.67-1.39-2.73-.86-.86-3.61-.22-7.43-.65-11.09z"/><path fill="#6c6267" d="M25.05 65.33c.08-3.86.33-7.71.75-11.55.16 3.88-.09 7.73-.75 11.55z"/><path fill="#bdb5b0" opacity=".98" d="M97.39 54.07c2.02-.67 1.5 1.61 1.79 2.86-.03 3.59-1.2 6.99-2.5 10.29-1.67-4.33.52-8.74.71-13.15z"/><path fill="#aeb0b8" d="M19.79 55.81c5.55-2.73-3.58 3.26.4 4.92 2.81.56 3.88 3.14 4.79 5.56l.4 6.71c-4.49 2.6-2.67-2.87-3.46-5.65-2.58.01-6.3 1.27-4.23-2.65-5.96 1.61.69 4.94.17 8.47.63 4.24-2.56-3.06-4.76-3.39-.04-.56-.13-1.69-.17-2.25 2.21-2.04 1.64-4.76 1.06-7.36 2.95 1.43 2.5-4.28 5.8-4.36z"/><path fill="#cec9cf" d="M60.4 54.71c.8 4.47.65 9.04.88 13.56-1.03.6-2.09 1.17-3.18 1.65-2.28-4.97.48-10.49 2.3-15.21z"/><path fill="#c9c5cd" d="M87.74 59.72c1.24-1.72 1.73-4.66 4.24-4.83-.06 3.44-.7 6.83-1.04 10.25-.95-.36-1.89-.74-2.83-1.12-.12-1.43-.25-2.87-.37-4.3z"/><path fill="#c7c9d0" d="M34.09 55.94c3.38 3.25 2.34 9.71 2.91 14.12-6.9-.54-2.7-9.97-2.91-14.12z"/><path fill="#8a7778" d="M46.22 57.1c3.74.12 6.13 4.26 5.02 7.94-3.2 9.74-9.94-4.08-5.02-7.94z"/><path fill="#5c423d" d="M9.84 78.12c1.06-6.6-2.28-15.89 2.06-20.38-.11 1.77-.34 5.32-.45 7.09-.33 1.33.04 2.37 1.48 2.7.04.56.13 1.69.17 2.25.3 3.63 1.92 7.83-2.49 9.54-.2-.3-.58-.9-.77-1.2z"/><path fill="#543c31" d="M81.92 58.09l1.16-.1c1.42 6.98.74 14.12.96 21.18 3.97-4.68-2.9-15.69 3.7-19.45.12 1.43.25 2.87.37 4.3-1.51 2.46-2.49 5.16-1.19 7.96 1.38 3.36.08 6.67-1.11 9.84-1.75-2.4-2.22-1.29-2.1 1.35-.39-.2-1.17-.6-1.57-.81-1.86-7.48-1.34-15.92-.22-24.27z"/><path fill="#5d493c" opacity=".96" d="M5.65 64.85c1.06-.53 1.88.35 2.73.86 1.05 3.45.48 7.07.3 10.61-1.38-1.9-2.7-3.88-3.4-6.14 1.39-1.62 1.22-3.49.37-5.33z"/><path fill="#a9a0a4" d="M88.11 64.02c.94.38 1.88.76 2.83 1.12.05 4.64 1.31 13.6-4.02 6.84-1.3-2.8-.32-5.5 1.19-7.96z"/><path fill="#8c8687" d="M17.86 73.17c.52-3.53-6.13-6.86-.17-8.47-2.07 3.92 1.65 2.66 4.23 2.65.79 2.78-1.03 8.25 3.46 5.65.86 1.14 3.12 2.09 2.48 3.74-5.11 1.68-10.42 2.88-15.28 5.25-.76-.81-1.39-1.73-1.97-2.67 4.41-1.71 2.79-5.91 2.49-9.54 2.2.33 5.39 7.63 4.76 3.39z"/><path fill="#999398" d="M71.69 78.41c-1.36-4.38-1.31-11.73 5.07-11.44.49 4.72 1.3 9.38 2.43 13.98-2.59-.57-5.11-1.38-7.5-2.54z"/><path fill="#6c514d" d="M53.35 75.38c1.79-.93 4.03-.51 4.78 1.51-3.18-1.3-5.62 1.42-8.19 2.83 6.32 2.66-8.1 2.54-9.92 2.3-.11 2.37 5.33-.6 3.98 2.94-7.28-.63-14.8-3.53-22.02-1.99-.28-6.44 8.71-2.5 12.61-2.22.78-2.96 2.92-2.71 5.34-1.8 3.84-3.11 9.37-.69 13.42-3.57z"/><path fill="#604744" d="M60.14 84.19c3.39-2.56 7.94-5.25 12.04-2.63-3.26-.25-3.14 1.78-2.05 4.15 3.87-1.22 7.79-2.47 11.95-1.89-3.32 2.38-.78 2.52 2.15 2.45-1.71 1.8-3.62 3.42-5.77 4.67-2.83-.93-5.47-.34-7.55 1.81-14.25-7.76-30.05-1.05-45.05.47-1.43-.89-2.82-1.85-4.2-2.82 2.13-1.1 13.23 1.85 9.67-3.65-4.54-.76-9.76.25-14.51-.54-.29-.29-.86-.86-1.14-1.15 14.75-2.2 30.22 4.7 44.46-.87z"/><path fill="#8a6a6b" d="M16.82 86.21c4.75.79 9.97-.22 14.51.54 3.56 5.5-7.54 2.55-9.67 3.65-1.83-1.13-3.4-2.61-4.84-4.19z"/><path fill="#362425" d="M25.86 93.22c15-1.52 30.8-8.23 45.05-.47 2.08-2.15 4.72-2.74 7.55-1.81-6.51 5.14-14.77 7.41-22.75 9.06H54.4c-3.52-1.99-7.82-2.68-11.68-1.32-5.98.47-11.69-2.72-16.86-5.46m22.92-2.15c1.86 3.21 6.16 2.06 9.35 2.72-.16-3.98-7.45-.88-9.35-2.72z"/><path fill="#604d4e" d="M48.78 91.07c1.9 1.84 9.19-1.26 9.35 2.72-3.19-.66-7.49.49-9.35-2.72z"/><path fill="#706367" opacity=".93" d="M42.72 98.68c3.86-1.36 8.16-.67 11.68 1.32h-8.9c-.7-.33-2.09-.99-2.78-1.32z"/></svg>