<svg width="100pt" height="100pt" viewBox="0 0 100 100" xmlns="http://www.w3.org/2000/svg"><g fill="#b9d4f5"><path d="M47.34 1.2c2.07-.19 4.15-.18 6.22-.03-.13 1.81-.26 3.62-.38 5.44-1.69.28-3.38.6-5.06.91l-.78-6.32zM75.21 79.82c1.2-.3 2.13.13 2.78 1.29-1.61.51-2.54.08-2.78-1.29z"/></g><path fill="#87bdec" d="M21.72 10.8c7.11-6.01 16.49-8.71 25.62-9.6l.78 6.32c-5.35.96-10.79 1.43-16.09 2.65-3.38.83-6.86.89-10.31.63z"/><path fill="#82bdef" d="M53.56 1.17c4.45.51 8.95 1.12 13.11 2.9-4.33 1.62-8.98 1.75-13.49 2.54.12-1.82.25-3.63.38-5.44z"/><g fill="#10456b"><path d="M66.67 4.07c.47.12.94.25 1.4.39-12.2 2.85-24.77 3.8-37.05 6.33-2.85.66-5.78.67-8.68.64-.07 1.65-.14 3.3-.2 4.95-.4 3.17-.75 6.35-.52 9.55l.02.27c3.48-.49 6.95-.97 10.44-1.39 1.04 1.55 3.1 1.52 4.64.83-.44-.31-1.34-.93-1.79-1.24 15.43-2.12 30.9-3.93 46.38-5.62.01-2.27.02-4.53.04-6.79.14.12.42.36.57.48.46 2.74-.44 5.93 1.28 8.32l1.58.49 1.85-1.51c-.11.48-.22.96-.34 1.44-.79.2-2.38.6-3.18.8-1.29 2.24.21 5.52.12 8.19l.12 1.17c.2 2.48.45 4.96.59 7.44-14.58.55-29.03 2.77-43.59 3.6-6.1.21-12.15 2.16-18.26 1.01-.43-.21-1.28-.65-1.7-.86 15.91-.89 31.72-3.03 47.6-4.28 4.84-.5 9.75-.58 14.47-1.86-1.19-4.63-.87-9.43-1.63-14.11-1.6-.3-3.24-.34-4.87-.32-.78-1.87-3.26-1.38-3.9.32-4.09.92-8.27 1.47-12.46 1.52-1.82-.6-3.72-.75-5.6-.39-4.53.77-9.45.11-13.49 2.74-5.85 1.81-12.28.97-18 3.07-.66 2.94-.89 5.97-1.42 8.94-.27-.12-.82-.35-1.09-.47-.12-5.26.86-10.5.49-15.78.98-3.56 1.52-7.25.71-10.91l.52-.23c3.45.26 6.93.2 10.31-.63 5.3-1.22 10.74-1.69 16.09-2.65 1.68-.31 3.37-.63 5.06-.91 4.51-.79 9.16-.92 13.49-2.54m-41.44 22.1c.29 1.41 3.8 1.36 4.38.21-1.2-.89-3.12-1.04-4.38-.21zM67.85 12.31c2.24.98-.51 5.27 2.41 4.6.25-1.62-.3-3.22-.48-4.81 2.7.73 2.21 3.48 1.81 5.45-1.49-.09-3.49.9-4.44-.75.01-1.52.24-3.02.7-4.49zM44.78 16.95c1.03-.54 2.06-1.08 3.09-1.63.3.33.91.99 1.21 1.33l-2.27-.22c.59.65 1.76 1.97 2.35 2.62-.21 1.81-2.61 1.43-3.89 1.69v-1.15l2.39.13c-.72-.7-2.16-2.08-2.88-2.77z"/></g><path fill="#bec8cb" d="M31.02 10.79C43.3 8.26 55.87 7.31 68.07 4.46c.68.2 2.03.61 2.7.81-.12.49-.36 1.48-.49 1.98-.11.33-.32 1.01-.43 1.34-1.13-.63-2.24-1.3-3.38-1.93 0 .9-.02 2.71-.03 3.61l-3-3.44.28 4.11c-1.96 2.64-1.6-3.12-1.44-4.04-.69 1.36-3.04 3.33-1.36 4.86.55.36 1.65 1.06 2.2 1.41-.57.48-1.73 1.43-2.31 1.91.43 1.32.86 2.64 1.31 3.96 2.75-.21 4.47-2.18 4.08-4.99-1.07-.41-2.14-.82-3.21-1.24.76-.65 2.27-1.96 3.02-2.62.38.54 1.13 1.61 1.51 2.14.1-.68.31-2.04.42-2.72 1.12.72 2.24 1.44 3.36 2.15l-.57-5.79.13-.43c3.69 1.8 7.25 3.89 10.49 6.45-.02 2.26-.03 4.52-.04 6.79-15.48 1.69-30.95 3.5-46.38 5.62-.71.11-2.14.31-2.85.41-3.49.42-6.96.9-10.44 1.39l-.02-.27c2.82-2.51 1.13-6.46.52-9.55.06-1.65.13-3.3.2-4.95 2.9.03 5.83.02 8.68-.64m18.7-.76c-.4-.22-1.18-.66-1.57-.88-.34.51-1.01 1.53-1.34 2.05-1.07-.42-2.16-.77-3.27-1.05.04.72.11 2.15.15 2.87-1.7-2.63-5.19-2.53-6.12.55-1.05.59-2.09 1.2-3.12 1.83.21-.98.63-2.93.84-3.9l-1.29.79v.69l-.87.14c-.01.44-.03 1.34-.05 1.79.44.51 1.31 1.55 1.75 2.06-1.28.89-2.38 1.99-3.41 3.16.39 3.13 5.8 3 4.74-.44-.79.36-2.35 1.07-3.13 1.43l.89-2.41c.6.1 1.79.31 2.38.42-.32-.61-.97-1.82-1.3-2.42 1.46-.88 2.93-1.74 4.49-2.43-.19-1.45.35-2.36 1.61-2.73-.14 1.11-.43 3.31-.58 4.41.44-.63 1.32-1.91 1.76-2.55 1.12 1.69 3.08 1.01 4.74.95l.2-2.49c.53.98 1.07 1.96 1.62 2.93.07-1.1.19-3.29.25-4.39l1.41-.15c.25 1.35-.84 3.51 1.1 4.01.38-2.72 3.08-3.82 5.05-5.21.13 1.47.28 2.95.44 4.42 2.15-1.12.77-4.26 2.88-5.55-3.42.69-6.91 1.11-10.25 2.1M36.26 12.1c.57.58.57.58 0 0m36.88-.34c.03 2 .13 3.99.25 5.99 1.4-.37 2.79-.74 4.19-1.1-3.77.35-1.43-4.42-4.44-4.89m-5.29.55c-.46 1.47-.69 2.97-.7 4.49.95 1.65 2.95.66 4.44.75.4-1.97.89-4.72-1.81-5.45.18 1.59.73 3.19.48 4.81-2.92.67-.17-3.62-2.41-4.6m-12.42 3.42c-1.83-.86-3.79-.56-5.55.29.2 1.41.04 3.08 1.44 3.95 1.62.27 2.77-1.09 4-1.86.38.44 1.12 1.31 1.5 1.75.12-.78.37-2.32.49-3.09.88.94 1.75 1.88 2.64 2.8.13-1.96.12-3.94-.05-5.9-1.25.56-1.88 1.58-1.9 3.07-.35-.71-1.05-2.11-1.4-2.82-.29.46-.88 1.36-1.17 1.81m-10.65 1.22c.72.69 2.16 2.07 2.88 2.77l-2.39-.13v1.15c1.28-.26 3.68.12 3.89-1.69-.59-.65-1.76-1.97-2.35-2.62l2.27.22c-.3-.34-.91-1-1.21-1.33-1.03.55-2.06 1.09-3.09 1.63m-7.35.16c-.22 1.37-.41 2.75-.55 4.14.41.18 1.24.54 1.65.73.08-.57.25-1.69.33-2.26l.99.05.36 1.85c2.01-.56 1.59-4.18.1-5.35-.13.72-.4 2.17-.54 2.9-.79-.6-1.14-2.41-2.34-2.06M26.2 20.88l-.25-1.9-1.08-.04c-.11 1.7-.22 3.41-.26 5.11.89-.68 1.47-1.57 1.75-2.69.46.52 1.36 1.55 1.81 2.07.34-1.81.56-3.65.63-5.49-1.09.76-1.83 1.88-2.6 2.94m4.11-2.7c-.68 1.35-.92 3.23-.13 4.58 1.36-.42 1.38-4.15.13-4.58z"/><g fill="#15548d"><path d="M66.47 6.66c1.14.63 2.25 1.3 3.38 1.93.11-.33.32-1.01.43-1.34l.45-1.28.57 5.79c-1.12-.71-2.24-1.43-3.36-2.15-.11.68-.32 2.04-.42 2.72-.38-.53-1.13-1.6-1.51-2.14-.75.66-2.26 1.97-3.02 2.62 1.07.42 2.14.83 3.21 1.24.39 2.81-1.33 4.78-4.08 4.99-.45-1.32-.88-2.64-1.31-3.96.58-.48 1.74-1.43 2.31-1.91-.55-.35-1.65-1.05-2.2-1.41-1.68-1.53.67-3.5 1.36-4.86-.16.92-.52 6.68 1.44 4.04l-.28-4.11 3 3.44c.01-.9.03-2.71.03-3.61m-3.24 8.62c-1.58 2.98 3.36.15 0 0zM49.72 10.03c3.34-.99 6.83-1.41 10.25-2.1-2.11 1.29-.73 4.43-2.88 5.55-.16-1.47-.31-2.95-.44-4.42-1.97 1.39-4.67 2.49-5.05 5.21-1.94-.5-.85-2.66-1.1-4.01l-1.41.15c-.06 1.1-.18 3.29-.25 4.39-.55-.97-1.09-1.95-1.62-2.93l-.2 2.49c-1.66.06-3.62.74-4.74-.95-.44.64-1.32 1.92-1.76 2.55.15-1.1.44-3.3.58-4.41-1.26.37-1.8 1.28-1.61 2.73-1.56.69-3.03 1.55-4.49 2.43.33.6.98 1.81 1.3 2.42-.59-.11-1.78-.32-2.38-.42l-.89 2.41c.78-.36 2.34-1.07 3.13-1.43 1.06 3.44-4.35 3.57-4.74.44 1.03-1.17 2.13-2.27 3.41-3.16-.44-.51-1.31-1.55-1.75-2.06.23-.49.69-1.45.92-1.93v-.69l1.29-.79c-.21.97-.63 2.92-.84 3.9 1.03-.63 2.07-1.24 3.12-1.83.93-3.08 4.42-3.18 6.12-.55-.04-.72-.11-2.15-.15-2.87 1.11.28 2.2.63 3.27 1.05.33-.52 1-1.54 1.34-2.05.39.22 1.17.66 1.57.88m2.5.16c.56.55.56.55 0 0zM73.14 11.76c3.01.47.67 5.24 4.44 4.89-1.4.36-2.79.73-4.19 1.1-.12-2-.22-3.99-.25-5.99zM55.43 15.73c.29-.45.88-1.35 1.17-1.81.35.71 1.05 2.11 1.4 2.82.02-1.49.65-2.51 1.9-3.07.17 1.96.18 3.94.05 5.9-.89-.92-1.76-1.86-2.64-2.8-.12.77-.37 2.31-.49 3.09-.38-.44-1.12-1.31-1.5-1.75-1.23.77-2.38 2.13-4 1.86-1.4-.87-1.24-2.54-1.44-3.95 1.76-.85 3.72-1.15 5.55-.29m-3.21.81c-1.61 2.47 2.45 2.46 2.66.39-.8-.76-1.69-.9-2.66-.39zM37.43 17.11c1.2-.35 1.55 1.46 2.34 2.06.14-.73.41-2.18.54-2.9 1.49 1.17 1.91 4.79-.1 5.35l-.36-1.85-.99-.05c-.08.57-.25 1.69-.33 2.26-.41-.19-1.24-.55-1.65-.73.14-1.39.33-2.77.55-4.14zM26.2 20.88c.77-1.06 1.51-2.18 2.6-2.94-.07 1.84-.29 3.68-.63 5.49-.45-.52-1.35-1.55-1.81-2.07-.28 1.12-.86 2.01-1.75 2.69.04-1.7.15-3.41.26-5.11l1.08.04.25 1.9z"/></g><path fill="#89bdf7" d="M52.22 10.19c.56.55.56.55 0 0z"/><path fill="#9dc1ed" d="M20.27 11.43c.23-.1.69-.3.93-.4.81 3.66.27 7.35-.71 10.91-2.29-1.63-3.53-4.14-4.53-6.69 1.37-1.34 2.81-2.62 4.31-3.82z"/><path fill="#004374" d="M36.26 12.1c.57.58.57.58 0 0z"/><path fill="#0067bd" d="M33.13 13.12l.87-.14c-.23.48-.69 1.44-.92 1.93.02-.45.04-1.35.05-1.79z"/><path fill="#adc9f0" d="M81.92 12.47c3.94 3.29 7.41 7.15 10.16 11.49l-5.07-.48c.2 2.16.41 4.33.63 6.49-1.47.08-2.94.15-4.41.23.09-2.67-1.41-5.95-.12-8.19.8-.2 2.39-.6 3.18-.8.12-.48.23-.96.34-1.44l-1.85 1.51-1.58-.49c-1.72-2.39-.82-5.58-1.28-8.32z"/><g fill="#a2a59e"><path d="M13.88 18.19c.57-1.06 1.33-2 2.08-2.94 1 2.55 2.24 5.06 4.53 6.69-2.26.13-2.41 2.38-2.97 4.06-.28-2.33-.5-4.66-.85-6.98l-2.66-.2-.13-.63zM11.17 74.39c1.38-.02 2.76-.05 4.15-.07.11 2.21-.08 4.42-.25 6.62l-2.3 1.33c-.47-.59-.93-1.19-1.38-1.79.04-2.03 0-4.07-.22-6.09z"/></g><g fill="#f2f7fb"><path d="M63.23 15.28c3.36.15-1.58 2.98 0 0zM1.84 42.52c1.62-8.92 5.18-18.16 12.04-24.33l.13.63c.13 1.81.4 3.62.63 5.43-1.67.02-3.33.08-5 .15-.21 1.39-.4 2.78-.61 4.17.43-.04 1.28-.14 1.71-.19 1.74 1.02 3.3 2.3 4.68 3.76-.07.64-.14 1.28-.23 1.92-1.87.58-4.17.71-5.42 2.45-2.2 2.82-1.24 6.66-1.61 9.96l-.08.57c-.32-.23-.94-.69-1.25-.92-1.23-1.79-2.68-3.38-4.99-3.6z"/></g><g fill="#d3ccba"><path d="M52.22 16.54c.97-.51 1.86-.37 2.66.39-.21 2.07-4.27 2.08-2.66-.39zM18.51 40.83c.31.35.93 1.04 1.24 1.39.16.08.48.25.64.34.42.21 1.27.65 1.7.86-4.37-1.83-8.68 4.61-5.11 7.83.53-.92 1.57-2.75 2.09-3.67.6 1.92.79 3.92.83 5.91l-.33.4-.56-3.36c-1.52 1.89-1.89 4.32-2.53 6.58-.52-.23-1.57-.7-2.1-.93 0-1.56 0-3.11.02-4.66-.69-.51-2.06-1.52-2.74-2.03-.58 1.11-1.09 2.26-1.55 3.43.61 1.45 1.48 2.77 2.27 4.13-.63 0-1.9.01-2.53.02l-.2-2.08-.6 2.17c-2.4.13-4.79.21-7.19.22-.16-1.45-.31-2.9-.6-4.33l-.09-.72c3.29-.55 6.68-.64 9.81-1.91-.84-1.23-1.59-2.59-2.9-3.38l.08-.57c.49-1.17 1.02-2.32 1.59-3.45.09 1.31.2 2.62.32 3.93.57-.29 1.72-.86 2.29-1.15 1.28 0 4.69.53 3.9-1.7-.42-.11-1.27-.33-1.69-.43 1.05-.38 2.11-.71 3.16-1.08.2-.44.59-1.32.78-1.76m-5.23 5.94c-1.19.22-2.06 3.35-.12 2.39 1.6-.13 2.39-3.33.12-2.39z"/></g><path fill="#decee6" d="M22.14 16.38c.61 3.09 2.3 7.04-.52 9.55-.23-3.2.12-6.38.52-9.55z"/><path fill="#135288" d="M30.31 18.18c1.25.43 1.23 4.16-.13 4.58-.79-1.35-.55-3.23.13-4.58z"/><g fill="#495242"><path d="M14.01 18.82l2.66.2c.35 2.32.57 4.65.85 6.98.34.93.72 1.84 1.1 2.76-.55 1.01-1.1 2.01-1.65 3.02.51 1.06 1.04 2.11 1.52 3.19-.13.29-.4.88-.53 1.17-.75-.06-2.25-.19-3-.25.05-.45.17-1.37.23-1.83.09-.64.16-1.28.23-1.92.12-1.25.21-2.5.34-3.75-1.67-.13-3.35-.23-5.02-.01-.43.05-1.28.15-1.71.19.21-1.39.4-2.78.61-4.17 1.67-.07 3.33-.13 5-.15-.23-1.81-.5-3.62-.63-5.43zM44.18 59c1.86-.06 3.72-.11 5.58-.15-.11 3.1 1.3 6.84-1.33 9.26.34.46 1.02 1.37 1.36 1.83-1.23-.36-2.47-.7-3.71-1.02.56-1.14 1.34-2.12 2.33-2.94l-.16-4.3c-1.95 2.29-2.89 5.09-3.08 8.06l-.82.72c.11-3.82.06-7.65-.17-11.46m.91 2.49c.95.66 3.03-.25 2.57-1.55-.93-.88-3 .31-2.57 1.55z"/></g><path fill="#1a6ba0" d="M72.06 22.31c.64-1.7 3.12-2.19 3.9-.32-1.29.25-2.59.36-3.9.32z"/><g fill="#4c5039"><path d="M17.52 26c.56-1.68.71-3.93 2.97-4.06.37 5.28-.61 10.52-.49 15.78-.72.75-1.41 1.53-2.06 2.35-.27-.34-.81-1.01-1.09-1.35.36-.87.73-1.73 1.11-2.58.13-.29.4-.88.53-1.17-.48-1.08-1.01-2.13-1.52-3.19.55-1.01 1.1-2.01 1.65-3.02-.38-.92-.76-1.83-1.1-2.76zM43.72 83.22c1.91-1.36 4.35-1.11 6.55-1.37-.39.9-.79 1.8-1.21 2.69-.48-.24-1.43-.71-1.9-.95-.51-.06-1.53-.17-2.04-.23l-1.4-.14z"/></g><path fill="#070807" d="M72.06 22.31c1.31.04 2.61-.07 3.9-.32 1.63-.02 3.27.02 4.87.32.76 4.68.44 9.48 1.63 14.11-4.72 1.28-9.63 1.36-14.47 1.86-15.88 1.25-31.69 3.39-47.6 4.28-.16-.09-.48-.26-.64-.34-.31-.35-.93-1.04-1.24-1.39l-.57-.76c.65-.82 1.34-1.6 2.06-2.35.27.12.82.35 1.09.47.53-2.97.76-6 1.42-8.94 5.72-2.1 12.15-1.26 18-3.07 6.41-.42 12.72-1.62 19.09-2.35 4.19-.05 8.37-.6 12.46-1.52M20.04 39.1c-.01.35-.02 1.05-.02 1.41l.94-.22.33-.97c-.31-.05-.94-.16-1.25-.22z"/><g fill="#678b99"><path d="M40.51 26.18c4.04-2.63 8.96-1.97 13.49-2.74 1.88-.36 3.78-.21 5.6.39-6.37.73-12.68 1.93-19.09 2.35zM35.42 64.48c1.68-3.27.18-7.27 2.46-10.3.7 14.7.26 29.42.51 44.13-1.16-.31-2.31-.64-3.45-1-.05-3.34-.16-6.68-.11-10.02.13-3.92.14-7.85-.04-11.77.12-3.68-.02-7.39.63-11.04z"/></g><g fill="#c9e0f3"><path d="M87.01 23.48l5.07.48c.48.78.95 1.56 1.4 2.36-2.39 3.16-5.77 6.55-10.13 5.05l-.12-1.17c1.47-.08 2.94-.15 4.41-.23-.22-2.16-.43-4.33-.63-6.49zM45.09 61.49c-.43-1.24 1.64-2.43 2.57-1.55.46 1.3-1.62 2.21-2.57 1.55z"/></g><path fill="#022540" d="M32.08 24.81c.71-.1 2.14-.3 2.85-.41.45.31 1.35.93 1.79 1.24-1.54.69-3.6.72-4.64-.83z"/><path fill="#14274e" d="M25.23 26.17c1.26-.83 3.18-.68 4.38.21-.58 1.15-4.09 1.2-4.38-.21z"/><g fill="#ecf1f7"><path d="M83.35 31.37c4.36 1.5 7.74-1.89 10.13-5.05 3.94 6.73 5.72 14.41 6.52 22.1v3.25c-4.95.36-9.92 1.2-14.88.51-.1-2.09-.2-4.18-.31-6.26-5.57-.49-11.11 1.26-16.67.46-.06-1.47-.1-2.93-.12-4.4 5.3-.42 10.6-.8 15.89-1.35.01-.46.02-1.36.03-1.82-.14-2.48-.39-4.96-.59-7.44M69.28 42.96c-.51 1.62.03 2.18 1.64 1.68.53-1.64-.01-2.2-1.64-1.68zM20.04 39.1c.31.06.94.17 1.25.22l-.33.97-.94.22c0-.36.01-1.06.02-1.41z"/></g><path fill="#9ba4a3" d="M10.74 28.38c1.67-.22 3.35-.12 5.02.01-.13 1.25-.22 2.5-.34 3.75-1.38-1.46-2.94-2.74-4.68-3.76z"/><path fill="#717a78" d="M9.77 36.51c1.25-1.74 3.55-1.87 5.42-2.45-.06.46-.18 1.38-.23 1.83.75.06 2.25.19 3 .25-.38.85-.75 1.71-1.11 2.58l-1.8-1.68c-1.85 1.91-4.03 3.59-5.3 5.98-.57 1.13-1.1 2.28-1.59 3.45.37-3.3-.59-7.14 1.61-9.96z"/><path fill="#f4f5f9" d="M9.75 43.02c1.27-2.39 3.45-4.07 5.3-5.98l1.8 1.68c.28.34.82 1.01 1.09 1.35l.57.76c-.19.44-.58 1.32-.78 1.76-1.05.37-2.11.7-3.16 1.08-.85.58-1.59 1.29-2.21 2.13-.57.29-1.72.86-2.29 1.15-.12-1.31-.23-2.62-.32-3.93z"/><g fill="#15241c"><path d="M40.35 42.41c14.56-.83 29.01-3.05 43.59-3.6-.01.46-.02 1.36-.03 1.82-5.29.55-10.59.93-15.89 1.35.02 1.47.06 2.93.12 4.4.04.59.1 1.79.13 2.38-.57-1.17-1.14-2.33-1.73-3.49-.45.89-.9 1.78-1.36 2.67-.23-1.89-.44-3.78-.66-5.67l-.35.03c-7.9.63-15.78 1.58-23.69 2.07-.25 1.5-.5 3.01-.73 4.52-.66 3.42-.72 6.92-.3 10.38.37 4.59-.07 9.18-.07 13.77.18 4.72.84 9.4 1.16 14.1l-1.23-1.87c-.49 4.39-.29 8.81-.27 13.22l-.65-.18c-.25-14.71.19-29.43-.51-44.13.12-2.01.19-4.02.25-6.03-1.07.87-2.13 1.76-3.25 2.57l-.73.31c-.13-.2-.41-.59-.54-.79.51-.23 1.53-.7 2.04-.94-.12-1.49-.25-2.98-.37-4.47l-1.48.18c-.09 1.18-.2 2.37-.31 3.56-.08-.88-.22-2.63-.3-3.51-3.27.39-6.55.68-9.84.95.59 3.25 2.13 6.17 3.56 9.11-1.68-1.98-3.01-4.21-4.11-6.56-.3.9-.61 1.8-.92 2.7-.5.56-1.49 1.67-1.98 2.23-.04-1.99-.23-3.99-.83-5.91-.52.92-1.56 2.75-2.09 3.67-3.57-3.22.74-9.66 5.11-7.83 6.11 1.15 12.16-.8 18.26-1.01zM12.36 45.8c.62-.84 1.36-1.55 2.21-2.13.42.1 1.27.32 1.69.43.79 2.23-2.62 1.7-3.9 1.7zM28.96 46.46c1.39-.27 1.91.27 1.59 1.61-.4-.04-1.18-.13-1.58-.17 0-.36-.01-1.08-.01-1.44z"/></g><path fill="#476876" d="M64.52 42.27c.22 1.89.43 3.78.66 5.67.46-.89.91-1.78 1.36-2.67.59 1.16 1.16 2.32 1.73 3.49.22 1.57.42 3.13.59 4.7.03.24.08.7.11.93-.09 9.21.49 18.4 1.24 27.57.38.32 1.14.94 1.53 1.26-.01.44-.01 1.33-.02 1.77-.45-.54-1.34-1.62-1.79-2.16-3.21-7.8-1.43-16.61-2.18-24.84-1.02.29-2.04.59-3.06.88.03-1.37.08-2.74.15-4.11-8.46.93-17.04.53-25.44 1.97.01.63.04 1.9.05 2.54-.42-3.46-.36-6.96.3-10.38-.12 2.08-.14 4.17-.18 6.26 8.41-.54 16.83-.97 25.21-1.94-.19-2.02-.37-4.05-.47-6.08-.06-1.61-.11-3.22-.14-4.83l.35-.03z"/><g fill="#dfebfa"><path d="M1.84 42.52c2.31.22 3.76 1.81 4.99 3.6.31.23.93.69 1.25.92 1.31.79 2.06 2.15 2.9 3.38-3.13 1.27-6.52 1.36-9.81 1.91-.34-3.29.22-6.57.67-9.81zM5.71 61.43c1.57 2.22.88 5.09 1.12 7.64-.36.31-1.08.95-1.43 1.27l-.35-.85c.03-2.7.21-5.4.66-8.06zM45.17 69.74c.19-2.97 1.13-5.77 3.08-8.06l.16 4.3c-.99.82-1.77 1.8-2.33 2.94-.23.2-.68.61-.91.82z"/></g><g fill="#f0f2f6"><path d="M40.48 44.37c7.91-.49 15.79-1.44 23.69-2.07.03 1.61.08 3.22.14 4.83-7.75.69-15.5 1.58-23.29 1.71l-.54-4.47zM29.45 61.79c2.42 1.63.82 5.36.99 7.84l-2.19.12c.28-2.67.65-5.33 1.2-7.96z"/></g><g fill="#60655e"><path d="M69.28 42.96c1.63-.52 2.17.04 1.64 1.68-1.61.5-2.15-.06-1.64-1.68zM26.34 60.17c1.7-.16 3.4-.31 5.11-.47.5 3.62.2 7.28-.13 10.9-.62-.12-1.86-.37-2.48-.49-.84.58-1.67 1.17-2.51 1.76.25-3.89.62-7.82.01-11.7m3.11 1.62c-.55 2.63-.92 5.29-1.2 7.96l2.19-.12c-.17-2.48 1.43-6.21-.99-7.84z"/></g><path fill="#d4c9b7" d="M39.75 48.89c.23-1.51.48-3.02.73-4.52l.54 4.47c7.79-.13 15.54-1.02 23.29-1.71.1 2.03.28 4.06.47 6.08-8.38.97-16.8 1.4-25.21 1.94.04-2.09.06-4.18.18-6.26z"/><path fill="#d2cbb8" d="M23.35 46.01c3.29-.27 6.57-.56 9.84-.95.08.88.22 2.63.3 3.51.11-1.19.22-2.38.31-3.56l1.48-.18c.12 1.49.25 2.98.37 4.47-.51.24-1.53.71-2.04.94-1.22-.83-2.55-1.45-3.9-2.02l-.74-.32c.4.04 1.18.13 1.58.17.32-1.34-.2-1.88-1.59-1.61 0 .36.01 1.08.01 1.44-.67-.3-2.01-.91-2.68-1.21.23 2.31 1.07 4.47 2.29 6.42 1.42.56 2.71 1.34 3.86 2.35-3.45.72-6.97.89-10.48 1 .01-1.74-.02-3.47-.08-5.2.31-.9.62-1.8.92-2.7 1.1 2.35 2.43 4.58 4.11 6.56-1.43-2.94-2.97-5.86-3.56-9.11z"/><path fill="#cfc6ae" d="M68.14 46.38c5.56.8 11.1-.95 16.67-.46.11 2.08.21 4.17.31 6.26-4.45-.57-8.9.3-13.31.79-.3-.36-.89-1.06-1.18-1.41-.44.48-1.32 1.43-1.77 1.9-.17-1.57-.37-3.13-.59-4.7-.03-.59-.09-1.79-.13-2.38m12.22.72c-.61 1.44-.21 1.91 1.21 1.42.61-1.44.2-1.91-1.21-1.42z"/><path fill="#56615a" d="M13.28 46.77c2.27-.94 1.48 2.26-.12 2.39-1.94.96-1.07-2.17.12-2.39z"/><path fill="#595645" d="M26.29 46.69c.67.3 2.01.91 2.68 1.21l.74.32c1.35.57 2.68 1.19 3.9 2.02.13.2.41.59.54.79.08.48.22 1.45.3 1.93.05 1.67.11 3.35.26 5.02-2.53-1.23-5.54-1.7-7.74.41l.49-1.14c-1.82.11-3.65.23-5.47.34-.01-.28-.02-.85-.03-1.13 3.51-.11 7.03-.28 10.48-1-1.15-1.01-2.44-1.79-3.86-2.35-1.22-1.95-2.06-4.11-2.29-6.42m2.83 3.62c-.38 1.42.1 1.97 1.46 1.63.39-1.43-.1-1.97-1.46-1.63z"/><path fill="#afa68c" d="M80.36 47.1c1.41-.49 1.82-.02 1.21 1.42-1.42.49-1.82.02-1.21-1.42z"/><path fill="#38545f" d="M34.88 50.72c1.12-.81 2.18-1.7 3.25-2.57-.06 2.01-.13 4.02-.25 6.03-2.28 3.03-.78 7.03-2.46 10.3-.16-2.17-.47-4.33-.71-6.5-.15-1.67-.21-3.35-.26-5.02.1-.56.32-1.68.43-2.24z"/><path fill="#19240a" d="M29.12 50.31c1.36-.34 1.85.2 1.46 1.63-1.36.34-1.84-.21-1.46-1.63z"/><path fill="#666a63" d="M10.11 52.92c.46-1.17.97-2.32 1.55-3.43.68.51 2.05 1.52 2.74 2.03-.02 1.55-.02 3.1-.02 4.66.53.23 1.58.7 2.1.93 1.02.69 2 1.43 2.98 2.17-.31.81-.62 1.63-.92 2.45l-.2.61c-.73-1.92-1.92-3.61-3.28-5.14.04 3.98.47 7.96.07 11.93-.74-2.55.32-6.3-2.59-7.57-.61 2.84-.95 5.74-1.16 8.64.95 0 2.84-.01 3.78-.01l.01.56c-1.48 0-2.96-.03-4.44-.06l.44 3.7c.22 2.02.26 4.06.22 6.09-.68-.91-1.37-1.81-2.01-2.75 1.58-5.37.58-10.99 1.2-16.46 1.23-.59 2.55-.89 3.96-.91-.6-.75-1.21-1.51-1.82-2.26-1.11.27-2.22.54-3.32.81-2.51-.15-5.02-.17-7.54-.13-.3-1.9-.47-3.81-.6-5.73.29 1.43.44 2.88.6 4.33 2.4-.01 4.79-.09 7.19-.22l.6-2.17.2 2.08c.63-.01 1.9-.02 2.53-.02-.79-1.36-1.66-2.68-2.27-4.13z"/><path fill="#c5cab6" d="M34.15 51.03l.73-.31c-.11.56-.33 1.68-.43 2.24-.08-.48-.22-1.45-.3-1.93z"/><path fill="#666f67" d="M70.63 51.56c.29.35.88 1.05 1.18 1.41 4.41-.49 8.86-1.36 13.31-.79 4.96.69 9.93-.15 14.88-.51v1.16l-.08.63c-2.45.02-4.91.07-7.36.12l.12 2.72c-.59-.73-1.19-1.45-1.8-2.16l-.86-.05c-1.25-.02-2.5-.01-3.75 0 .29 7.62.44 15.26 1.53 22.81.34 1.36 1.11 2.55 1.73 3.79-.99 1.28-2.08 2.49-3.19 3.66.27-5.15.09-10.31-.42-15.44-.58-5.25.03-10.66-1.61-15.76-4.07.67-8.18 1.02-12.29 1.27-.43.25-1.3.77-1.74 1.03-.33-.26-.99-.79-1.31-1.06-.03-.23-.08-.69-.11-.93.45-.47 1.33-1.42 1.77-1.9z"/><g fill="#33372f"><path d="M16.48 57.11c.64-2.26 1.01-4.69 2.53-6.58l.56 3.36.33-.4c.49-.56 1.48-1.67 1.98-2.23.06 1.73.09 3.46.08 5.2.01.28.02.85.03 1.13.26 3.1.66 6.22.4 9.34-.6 6.71.3 13.44-.12 20.17-.08 1.22-.21 2.43-.3 3.65-1.18-.88-2.33-1.79-3.46-2.72.62-.44 1.24-.89 1.86-1.32-3.42-1.69-2.2-6.04-2.47-9.12 3.52-1.84 1.7-6.39 2.07-9.55.53-1.75.21-3.59-.88-5.06l-.55-1.25c.3-.82.61-1.64.92-2.45-.98-.74-1.96-1.48-2.98-2.17zM3.15 61.36c1.06-.04 3.18-.14 4.24-.19-.04 2.64.11 5.32-.56 7.9-.24-2.55.45-5.42-1.12-7.64-.45 2.66-.63 5.36-.66 8.06-.47-1.08-.89-2.17-1.28-3.28-.22-1.61-.43-3.23-.62-4.85zM73.76 75.57c1.7-.05 3.4-.09 5.1-.18-1.74.74-4.14.89-4.8 3.05 1.16-.19 3.48-.56 4.64-.75 0 2.07-2 1.48-3.5 1.46l.01.67c.24 1.37 1.17 1.8 2.78 1.29l2.44-.16c-.91 2.78-4.69.99-6.87 1.6.1-2.33.12-4.65.03-6.98h.17z"/></g><path fill="#c9c0af" d="M72.02 54.42c4.11-.25 8.22-.6 12.29-1.27 1.64 5.1 1.03 10.51 1.61 15.76.51 5.13.69 10.29.42 15.44-.25.26-.77.78-1.02 1.04-2.87-.01-5.72.35-8.24 1.81-2.44-.35-4.89-.63-7.35-.85l.2-3.52c.45.54 1.34 1.62 1.79 2.16.01-.44.01-1.33.02-1.77-.39-.32-1.15-.94-1.53-1.26-.75-9.17-1.33-18.36-1.24-27.57.32.27.98.8 1.31 1.06.44-.26 1.31-.78 1.74-1.03M72 57.01c.62 4.38.71 8.81 1 13.23l-1.06 1.38c.26.07.76.22 1.02.3.17 1.23.44 2.45.8 3.65h-.17c.09 2.33.07 4.65-.03 6.98 2.18-.61 5.96 1.18 6.87-1.6-.18-2.91-.32-5.83-.56-8.74-.04-2.09-.11-4.18-.39-6.25l-.12.55.02-1.52-1.08.26c.33-2.03.63-4.07.91-6.11.63-.84-.38-1.93-.45-2.85-2.25.33-4.5.55-6.76.72z"/><g fill="#b3ad9a"><path d="M86.27 54.09c1.25-.01 2.5-.02 3.75 0-.04 1.21-.08 2.43-.13 3.65-.06.79-.16 2.38-.21 3.18-.29.04-.87.11-1.15.15.89 1.68 1.61 3.46 2.08 5.31-1.68 3.82-.07 7.91.7 11.74-.45.64-1.33 1.93-1.78 2.57-.62-1.24-1.39-2.43-1.73-3.79-1.09-7.55-1.24-15.19-1.53-22.81zM22.93 91.43c2.65-1.41 4.74-3.59 7-5.51-1.32 1.49-2.75 3.02-2.88 5.14 2.52-.04 5.3-1.08 7.64.35-2.27.57-4.55 1.07-6.85 1.44l-2.08.32c-.95-.56-1.9-1.13-2.83-1.74z"/></g><path fill="#c9beab" d="M90.02 54.09l.86.05c.61.71 1.21 1.43 1.8 2.16l-.12-2.72c2.45-.05 4.91-.1 7.36-.12-.28 1.75-.6 3.5-.91 5.25-.66-.07-1.99-.2-2.65-.26-2.16-.22-4.32-.47-6.47-.71.05-1.22.09-2.44.13-3.65z"/><path fill="#cabfaa" d="M39.4 56.73c8.4-1.44 16.98-1.04 25.44-1.97-.07 1.37-.12 2.74-.15 4.11l.02.58c-.51.05-1.52.14-2.03.18.18 3.07.31 6.15.5 9.22.21 4.16-.18 8.34.24 12.49.23 1.44 1.85 2.15 2.17 3.55-.38.79-.79 1.56-1.23 2.32-6.06-.06-12.1.47-18.15.52-.99-.48-1.96-.98-2.93-1.49l1.84-2.88c.51.06 1.53.17 2.04.23.47.24 1.42.71 1.9.95.42-.89.82-1.79 1.21-2.69-.49-2.63-.95-5.29-.62-7.97.08-1.32.13-2.63.14-3.94-.34-.46-1.02-1.37-1.36-1.83 2.63-2.42 1.22-6.16 1.33-9.26-1.86.04-3.72.09-5.58.15.23 3.81.28 7.64.17 11.46-1 .89-2.16 1.66-2.97 2.74-.02 2.68.52 5.32.82 7.97.22 2.17.35 4.54-1.66 5.97-.32-4.7-.98-9.38-1.16-14.1 0-4.59.44-9.18.07-13.77-.01-.64-.04-1.91-.05-2.54m13.62 1.41c.22 3.97.46 7.96.16 11.94l-.32 2.54c.75 3.41.64 6.9.33 10.34l-2.8.24c1.45 1.61 3.76 1.23 5.68 1.63 1.32-.03 2.64-.05 3.96-.06l.28-1.68c-.13-.49-.38-1.47-.5-1.96.22-2.5.26-5.01.17-7.52-.43-2.57-.08-5.27-.97-7.75-.33-2.63-.23-5.29.07-7.92-2.02.06-4.04.12-6.06.2z"/><path fill="#8a9692" d="M72 57.01c2.26-.17 4.51-.39 6.76-.72.07.92 1.08 2.01.45 2.85-1.55.39-3.13.68-4.69 1l.72 5.87c1.02-.26 2.04-.51 3.06-.76l1.08-.26-.02 1.52-.32 1.58c-1.56.13-3.11.27-4.67.4-.34.44-1.03 1.31-1.37 1.75-.29-4.42-.38-8.85-1-13.23z"/><path fill="#c9bda9" d="M26.97 58.39c2.2-2.11 5.21-1.64 7.74-.41.24 2.17.55 4.33.71 6.5-.65 3.65-.51 7.36-.63 11.04-.37 2.67-.72 5.35-.94 8.03-.39.04-1.17.11-1.57.14-.4.5-1.2 1.5-1.6 1.99.37-3.09.43-6.21.32-9.32-1.59.03-3.18.07-4.77.1.04 2.91.09 5.83-.04 8.74-1.26.73-2.6 1.3-3.92 1.9.42-6.73-.48-13.46.12-20.17.26-3.12-.14-6.24-.4-9.34 1.82-.11 3.65-.23 5.47-.34l-.49 1.14m-.63 1.78c.61 3.88.24 7.81-.01 11.7.84-.59 1.67-1.18 2.51-1.76.62.12 1.86.37 2.48.49.33-3.62.63-7.28.13-10.9-1.71.16-3.41.31-5.11.47z"/><path fill="#d0c1a8" d="M15.13 69.13c.4-3.97-.03-7.95-.07-11.93 1.36 1.53 2.55 3.22 3.28 5.14-.38 3.6-.29 7.25.87 10.71.85 1.67-.73 2.81-1.75 3.84-.17 2.78-.44 5.56-.83 8.31-.77-1.32-1.59-2.67-1.56-4.26.17-2.2.36-4.41.25-6.62-.04-.89-.12-2.68-.15-3.57l-.01-.56c-.01-.26-.02-.79-.03-1.06z"/><path fill="#5e736c" d="M53.02 58.14c2.02-.08 4.04-.14 6.06-.2-.3 2.63-.4 5.29-.07 7.92.04.7.13 2.1.17 2.8l-3.05.36c.26-2.82 1.7-6.02 0-8.6-2.23 2.15-.61 6.24-1.14 9.14-.1.25-.31.73-.42.97-.34-.11-1.04-.34-1.39-.45.3-3.98.06-7.97-.16-11.94z"/><path fill="#607e86" d="M64.69 58.87c1.02-.29 2.04-.59 3.06-.88.75 8.23-1.03 17.04 2.18 24.84l-.2 3.52c-.11 3.2-.01 6.41-.03 9.61-1.18.48-2.37.93-3.56 1.35-.05-2.19-.08-4.37-.16-6.56-.05-1.17-.12-2.35-.21-3.52-.35 0-1.06-.01-1.41-.02.44-.76.85-1.53 1.23-2.32-.32-1.4-1.94-2.11-2.17-3.55-.42-4.15-.03-8.33-.24-12.49.34 1.49.75 2.96 1.16 4.43.63-4.58.75-9.22.37-13.83l-.02-.58z"/><path fill="#818f89" d="M89.89 57.74c2.15.24 4.31.49 6.47.71l-1.8 2.04c-1.63.12-3.26.26-4.88.43.05-.8.15-2.39.21-3.18z"/><path fill="#a7b2b2" d="M96.36 58.45c.66.06 1.99.19 2.65.26-.03.22-.11.68-.15.91-4.46-.15-2.79 4.77-2.92 7.59-1.78-.28-3.56-.54-5.33-.83-.47-1.85-1.19-3.63-2.08-5.31.28-.04.86-.11 1.15-.15 1.62-.17 3.25-.31 4.88-.43l1.8-2.04z"/><path fill="#d0bea8" d="M1.86 58.78c2.52-.04 5.03-.02 7.54.13 1.1-.27 2.21-.54 3.32-.81.61.75 1.22 1.51 1.82 2.26-1.41.02-2.73.32-3.96.91-.62 5.47.38 11.09-1.2 16.46-1.54-2.34-2.83-4.84-3.98-7.39.35-.32 1.07-.96 1.43-1.27.67-2.58.52-5.26.56-7.9-1.06.05-3.18.15-4.24.19.19 1.62.4 3.24.62 4.85-.85-2.41-1.46-4.91-1.91-7.43z"/><path fill="#b8c4c2" d="M74.52 60.14c1.56-.32 3.14-.61 4.69-1-.28 2.04-.58 4.08-.91 6.11-1.02.25-2.04.5-3.06.76l-.72-5.87z"/><path fill="#756e5d" d="M62.68 59.63c.51-.04 1.52-.13 2.03-.18.38 4.61.26 9.25-.37 13.83-.41-1.47-.82-2.94-1.16-4.43-.19-3.07-.32-6.15-.5-9.22z"/><path fill="#bdb9aa" opacity=".95" d="M95.94 67.21c.13-2.82-1.54-7.74 2.92-7.59-.43 2.64-1.05 5.25-1.94 7.77l-.98-.18z"/><path fill="#9fb0b2" d="M54.99 69.56c.53-2.9-1.09-6.99 1.14-9.14 1.7 2.58.26 5.78 0 8.6l-1.14.54z"/><path fill="#79786a" d="M18.34 62.34l.2-.61.55 1.25c-.61 1.71-.79 3.86.88 5.06-.37 3.16 1.45 7.71-2.07 9.55.27 3.08-.95 7.43 2.47 9.12-.62.43-1.24.88-1.86 1.32-.65-.56-1.3-1.12-1.93-1.7.01-.28.04-.84.05-1.13.39-2.75.66-5.53.83-8.31 1.02-1.03 2.6-2.17 1.75-3.84-1.16-3.46-1.25-7.11-.87-10.71z"/><path fill="#bdc4cc" d="M12.54 61.56c2.91 1.27 1.85 5.02 2.59 7.57.01.27.02.8.03 1.06-.94 0-2.83.01-3.78.01.21-2.9.55-5.8 1.16-8.64z"/><path fill="#141812" d="M19.09 62.98c1.09 1.47 1.41 3.31.88 5.06-1.67-1.2-1.49-3.35-.88-5.06z"/><path fill="#b8aa83" d="M59.01 65.86c.89 2.48.54 5.18.97 7.75-2.38-.34-4.75-.66-7.12-.99l.32-2.54c.35.11 1.05.34 1.39.45.11-.24.32-.72.42-.97l1.14-.54 3.05-.36c-.04-.7-.13-2.1-.17-2.8z"/><path fill="#b6a685" d="M79.36 66.51l.12-.55c.28 2.07.35 4.16.39 6.25-2.31.11-4.66.32-6.91-.29-.26-.08-.76-.23-1.02-.3L73 70.24c.34-.44 1.03-1.31 1.37-1.75 1.56-.13 3.11-.27 4.67-.4l.32-1.58z"/><path fill="#a4957b" d="M91.31 78.12c-.77-3.83-2.38-7.92-.7-11.74 1.77.29 3.55.55 5.33.83l.98.18c-1.48 3.77-3.4 7.35-5.61 10.73z"/><path fill="#afa079" d="M45.17 69.74c.23-.21.68-.62.91-.82 1.24.32 2.48.66 3.71 1.02-.01 1.31-.06 2.62-.14 3.94l-5.45.06c-.11 2.41-.21 4.83-.31 7.25-.42-.01-1.27-.01-1.69-.02-.3-2.65-.84-5.29-.82-7.97.81-1.08 1.97-1.85 2.97-2.74l.82-.72z"/><path fill="#b5a98a" d="M10.73 70.69c1.48.03 2.96.06 4.44.06.03.89.11 2.68.15 3.57-1.39.02-2.77.05-4.15.07l-.44-3.7z"/><path fill="#737770" d="M72.96 71.92c2.25.61 4.6.4 6.91.29.24 2.91.38 5.83.56 8.74l-2.44.16c-.65-1.16-1.58-1.59-2.78-1.29l-.01-.67c1.5.02 3.5.61 3.5-1.46-1.16.19-3.48.56-4.64.75.66-2.16 3.06-2.31 4.8-3.05-1.7.09-3.4.13-5.1.18-.36-1.2-.63-2.42-.8-3.65z"/><path fill="#8b9089" d="M52.86 72.62c2.37.33 4.74.65 7.12.99.09 2.51.05 5.02-.17 7.52-.24-.89-.49-1.77-.75-2.65-1.25-.17-2.51-.33-3.77-.5.08-1.04.16-2.07.25-3.11-.42-.02-1.24-.07-1.65-.09-.08 2.84-.72 5.84.49 8.54.42.37 1.27 1.13 1.69 1.51-1.92-.4-4.23-.02-5.68-1.63l2.8-.24c.31-3.44.42-6.93-.33-10.34z"/><path fill="#6d776f" d="M44.2 73.94l5.45-.06c-.33 2.68.13 5.34.62 7.97-2.2.26-4.64.01-6.55 1.37l1.4.14-1.84 2.88c.97.51 1.94 1.01 2.93 1.49-1.52.37-3.04.75-4.54 1.17-.29-.44-.85-1.32-1.13-1.76 2.01-1.43 1.88-3.8 1.66-5.97.42.01 1.27.01 1.69.02.1-2.42.2-4.84.31-7.25z"/><path fill="#616a69" d="M53.89 74.78c.41.02 1.23.07 1.65.09-.09 1.04-.17 2.07-.25 3.11 1.26.17 2.52.33 3.77.5.26.88.51 1.76.75 2.65.12.49.37 1.47.5 1.96-1.98.08-3.95.16-5.93.23-1.21-2.7-.57-5.7-.49-8.54m2.31 6.21c.02 3.27 3.11-1.43 0 0z"/><path fill="#191a14" d="M26.23 76.46c1.59-.03 3.18-.07 4.77-.1.11 3.11.05 6.23-.32 9.32-1.49-.24-2.99-.36-4.49-.48.13-2.91.08-5.83.04-8.74z"/><path fill="#9a9382" d="M33.85 83.55c.22-2.68.57-5.36.94-8.03.18 3.92.17 7.85.04 11.77-1.39-.54-2.75-1.11-4.15-1.61.4-.49 1.2-1.49 1.6-1.99.4-.03 1.18-.1 1.57-.14z"/><path fill="#7a7366" opacity=".85" d="M12.77 82.27l2.3-1.33c-.03 1.59.79 2.94 1.56 4.26-.01.29-.04.85-.05 1.13-1.37-1.25-2.64-2.61-3.81-4.06z"/><path fill="#a9b1b6" d="M56.2 80.99c3.11-1.43.02 3.27 0 0z"/><path fill="#aea27d" d="M54.38 83.32c1.98-.07 3.95-.15 5.93-.23l-.28 1.68c-1.32.01-2.64.03-3.96.06-.42-.38-1.27-1.14-1.69-1.51z"/><path fill="#706756" d="M26.19 85.2c1.5.12 3 .24 4.49.48 1.4.5 2.76 1.07 4.15 1.61-.05 3.34.06 6.68.11 10.02l-.3-.11c-.17-1.41-.37-2.81-.6-4.21-2.04-.49-4.14-.32-6.2-.14 2.3-.37 4.58-.87 6.85-1.44-2.34-1.43-5.12-.39-7.64-.35.13-2.12 1.56-3.65 2.88-5.14-2.26 1.92-4.35 4.1-7 5.51l-.96-.68c.09-1.22.22-2.43.3-3.65 1.32-.6 2.66-1.17 3.92-1.9z"/><path fill="#141c12" d="M77.08 87.2c2.52-1.46 5.37-1.82 8.24-1.81-2.28 2.28-4.74 4.39-7.44 6.15-2.3-1.74-5.26-.89-7.9-.86.18 1.63.38 3.27.58 4.9-.22.1-.65.29-.86.38.02-3.2-.08-6.41.03-9.61 2.46.22 4.91.5 7.35.85z"/><g fill="#355e19"><path d="M39.04 98.49c-.02-4.41-.22-8.83.27-13.22l1.23 1.87c.28.44.84 1.32 1.13 1.76.46.71.92 1.43 1.37 2.15 4.52-.51 9.15-1.38 13.58.14 2.08.5 4.17.95 6.27 1.36-.12.41-.37 1.25-.5 1.66-7.2 1.89-14.57 2.96-21.82 4.59-.38-.08-1.15-.24-1.53-.31zM25.76 93.17l2.08-.32c2.06-.18 4.16-.35 6.2.14.23 1.4.43 2.8.6 4.21-3.06-1.09-6.05-2.4-8.88-4.03z"/></g><path fill="#161e12" d="M46.21 87.73c6.05-.05 12.09-.58 18.15-.52.35.01 1.06.02 1.41.02.09 1.17.16 2.35.21 3.52-3.12.06-6.24.28-9.36.44-4.43-1.52-9.06-.65-13.58-.14-.45-.72-.91-1.44-1.37-2.15 1.5-.42 3.02-.8 4.54-1.17z"/><path fill="#486f23" d="M56.62 91.19c3.12-.16 6.24-.38 9.36-.44.08 2.19.11 4.37.16 6.56-4.1 1.37-8.39 1.98-12.64 2.69h-5.13c-2.61-.33-5.2-.77-7.8-1.2 7.25-1.63 14.62-2.7 21.82-4.59.13-.41.38-1.25.5-1.66-2.1-.41-4.19-.86-6.27-1.36z"/><path fill="#477127" d="M69.98 90.68c2.64-.03 5.6-.88 7.9.86-2.34 1.52-4.8 2.85-7.32 4.04-.2-1.63-.4-3.27-.58-4.9z"/></svg>