<svg width="100pt" height="100pt" viewBox="0 0 100 100" xmlns="http://www.w3.org/2000/svg"><g fill="#cfd5da"><path d="M24.82 8.44C41.88-2.47 65.6-.86 81.19 11.86l-2.12-.92c-.5.49-1 .98-1.51 1.47-.47-1.12-.83-2.31-1.73-3.19-1.99-.14-3.66 1.26-5.41 1.98 1.08 3 4.4 3.18 7.05 3.83-.44 6.07-.28 12.25 1.64 18.08.87-.27 1.74-.55 2.61-.82.09.38.26 1.14.34 1.52-.61.03-1.84.1-2.45.14.87 1.07 1.75 2.14 2.63 3.22-5.56 3.41-8.75 9.37-13.63 13.58-3.51-3.32-7.63-5.89-11.29-9-2.52-4.02-2.37-9-3.65-13.45-1.15-3.95-1.41-8.04-1.76-12.11-.08-1.72-1.64-2.75-2.65-3.94-.4 3.21-.15 6.45.62 9.59-1.12 2.13-2.43 4.28-2.58 6.74-.37 2.74 1.76 4.87 2.88 7.16 1.33 2.08 1.65 4.55 2.05 6.93 2 2.49 3.52 5.31 5.42 7.87-.33.42-1 1.25-1.33 1.66.49 1.08.98 2.16 1.46 3.24-2.12-1.26-2.66-3.62-3.19-5.85l-1.5 4.17c.1-2.82.3-5.69-.3-8.48-1.52-.06-1.1 2.1-1.48 3.09-.12 5.19.12 10.59 1.74 15.56.99 3.51 4.76 4.42 7.7 5.71-2.01.17-4.01.34-6 .63.82 2.12 1.39 4.33 1.92 6.54.21-1.76.46-3.52.75-5.27 2.2 3.4.4 7.53.8 11.26.47 1.52 1.33 2.89 2.07 4.29-2.97-.09-5.95-.04-8.93.08.16 1.21.32 2.42.47 3.63-.93-1.54-1.83-3.09-2.74-4.64-6.98.86-13.96 2.07-21.02 1.85-1.11-3.02-2.37-5.99-3.81-8.86 6.15-2.08 12.95-5.24 15.43-11.73-2.1 1.64-3.96 3.58-6.17 5.07-2.48 1.36-5.28 1.96-7.97 2.73-.2-3.14 2.92-4.69 4.51-6.96 1.75-2.55 2.66-5.55 3.92-8.36-2.61-5.43-6.26-10.31-10.83-14.25-2.77-3.13-5.81-6.08-9.88-7.4 3.18-3.29 4.64-7.8 5.54-12.18.48-3.94 1.76-7.94.84-11.92 1.87-.43 3.74-.87 5.61-1.31-.04 1.92-.1 3.84-.09 5.76 1.42-.49 2.85-.98 4.28-1.46.01.78.04 2.35.05 3.13 1.33.06 2.66.11 3.99.16 1.27 4.78 1.01 9.76 1.28 14.66 1.16-5.04-.28-10.18.34-15.26-1.53-.11-3.06-.18-4.58-.29-.2-2.18-.4-4.36-.65-6.53-.13.75-.4 2.27-.54 3.03-1.3-.09-2.6-.17-3.91-.26.69-2.14 1.51-4.24 2.39-6.31-1-.34-2-.69-3-1.03m28.37-2.3c-.56 1.6-.01 2.17 1.64 1.7.56-1.59.02-2.16-1.64-1.7m-.28 64.93c-1.01 2.41.2 4.61 2.14 6.16l-.09-5.18c-.51-.25-1.54-.74-2.05-.98zM82.34 13c.09.09.27.26.36.35-.09-.09-.27-.26-.36-.35zM12.12 19.53c1.65-1.91 3.36-3.77 5.22-5.47.24.96.48 1.92.72 2.87-2.24.59-1.54 2.1-.58 3.56-1.02 3.5-.35 8.16-3.44 10.63-.77-.34-1.57-.56-2.4-.66-1.46.33-2.93.65-4.39.95 1.9 1.03 3.84 2 5.75 3.01.71-.7 1.43-1.4 2.14-2.09-1.35 1.78-2.92 3.38-4.64 4.8-.14-.5-.42-1.52-.57-2.03-.54.29-1.63.87-2.18 1.16-1.07-1.3-2.1-2.65-3.11-4.01 1.77-4.17 3.99-8.14 6.72-11.76.24 2.61 1.11 5.1 2.43 7.35-.63-.77-1.25-1.53-1.88-2.29-2.22 1.24-4.23 2.81-5.93 4.71 2.99-.67 6.03-1.08 9.08-1.29.01-2.21-.51-4.36-1.01-6.5.45.33 1.36.97 1.82 1.29.11-1.32.21-2.64.32-3.96-1.36-.12-2.71-.22-4.07-.27zM78.17 15.74c2.45-.01 4.9.05 7.35.12 3.23 3.25 5.96 7.01 8.27 10.97-1.34 3.74-4.39 6.32-7.33 8.81-1.14.14-2.28.28-3.42.43-.06-.51-.18-1.54-.25-2.05 1.24.29 2.47.57 3.71.83-1.12-.83-2.23-1.67-3.34-2.52 1.49-.21 2.97-.44 4.45-.68-1.26-.48-2.51-.99-3.77-1.47.47-1.27.96-2.53 1.43-3.8-1.4-.27-2.8-.53-4.21-.79l2.1-2.82c-.44-1.13-.89-2.26-1.34-3.39-1.58-.81-3.23-1.74-3.65-3.64zM79.27 26.6c-.85-1.24-.63-2.02.64-2.33.86 1.24.65 2.01-.64 2.33zM81.14 27.01c2.99-1.51.15 3.32 0 0zM89.79 37.25c.25.44.49.88.75 1.32-2.04 1.7-4.05 3.44-6.03 5.21.69 1.73.88 3.9 2.64 4.96.05-.75.14-2.25.19-3 .96-.16 1.91-.33 2.87-.5l-1.82-2.12c1.08-.34 2.16-.68 3.25-1.03-1.18 2.81-1.87 5.76-2.01 8.8-2.18 1.59-2.93-3.69-5.77-2.65-.86 1.45-1.74 2.89-2.62 4.33l-3.17.03c.8-.12 2.42-.34 3.22-.46.84-2.33 2-5.09-.14-7.2-.78 1-1.24 2.28-.65 3.5l-.03.46c-2.69.07-1.14-2.85-1.09-4.42.08-.36.23-1.08.31-1.44.85.86 1.69 1.72 2.56 2.56.72-1.63 2.98-3.04 2.29-5.06 2.12-.34 4.4-1.08 5.25-3.29m-5.63 8.84c-1.37.68-1.44 1.37-.22 2.08 1.36-.69 1.43-1.38.22-2.08m4.09 1.14c.52.51.52.51 0 0zM91.9 41.11c1.67-1.77 3.58-3.3 5.67-4.55-1.19 2.18-2.83 4.67-5.67 4.55zM95.59 41.39c.42-.27 1.27-.81 1.69-1.07 1.29 4.34 1.19 8.96 2.4 13.33-.39 7.24-2.47 14.35-5.99 20.69l-1.73-.04c.63-11.02-.06-22.31 3.63-32.91zM6.13 42.39c1.33-.22 2.46 2.32.86 2.66-1.49.28-2.58-2.25-.86-2.66zM14.27 43.12c1.64-.49 2.18.08 1.63 1.7-1.63.48-2.17-.09-1.63-1.7zM77.26 44.26c.5.52.5.52 0 0zM56.77 48.12c-.37-1.99.35-2.6 2.17-1.83 1.6.6 1.88 2.54 2.7 3.84l.67-1.34c2.1 1.38 4.44 2.68 5.43 5.15.88-.15 1.76-.29 2.64-.44 2.54-2.58 5.11-5.12 7.51-7.83-.52 2.1-1.1 4.22-2.21 6.11-1.49 1.67-3.48 2.82-5.12 4.34-2.69-.19-5.03-1.56-7.13-3.15l-.81.83c-1.3-1.65-2.58-3.4-3.01-5.51-.95.15-1.92.17-2.84-.17zM16.36 48.59c1.09.69 1.32 1.9 1.56 3.06-.7 0-2.08-.01-2.77-.02.39-1.01.8-2.03 1.21-3.04zM6.51 50.16c1.48-1.25 3.49 1.22 2.08 2.5-1.42 1.3-3.34-1.3-2.08-2.5zM61.99 68.53c.71-5.56-1.5-10.68-3.01-15.86.34.45 1.03 1.34 1.37 1.79 3.26 1.61 5.95 4.62 9.74 4.94 1.8-.43 3.3-1.58 4.86-2.51-.99 3.44-1.98 6.88-3.07 10.29-.94-.4-1.87-.8-2.8-1.21-.52.28-1.57.84-2.1 1.12-.73-.63-1.45-1.25-2.18-1.87-.94 1.1-1.88 2.2-2.81 3.31zM28.07 53.7c.98 1.58 1.71 3.29 2.4 5.01-.35-.06-1.05-.18-1.4-.25-.64 1.56-1.29 3.11-1.95 4.66.73.32 2.19.98 2.92 1.3-1.38.49-2.66 1.2-3.81 2.11-.29-.18-.86-.56-1.15-.74.44-1.2.9-2.39 1.35-3.59-1.34.63-2.68 1.25-4.02 1.86 1.65-2.77 3.64-5.36 6.54-6.9-.31-1.15-.6-2.3-.88-3.46m-1.88 6.56c-1.58 2.98 3.33.19 0 0zM7.19 55.84c.29-1.29 1.06-1.49 2.3-.61-.31 1.28-1.08 1.48-2.3.61zM21.08 56.46c1.4.48 2.18 2.98 1.74 4.39-1.75-.02-2.38-3.01-1.74-4.39zM85.99 60.01c.57-1.8 1.37-3.51 2.99-4.59.14 1.48.27 2.95.39 4.43l-3.38.16zM7.75 61.24c-.22-1.38-.43-2.76-.64-4.14 1.1.85 2.2 1.7 3.31 2.55-.67.4-2.01 1.19-2.67 1.59zM17.22 56.92c1.63-.44 2.15.15 1.56 1.77-1.63.44-2.15-.15-1.56-1.77zM56.78 56.83c1.02.45 2.04.91 3.06 1.36l-1.08 1.76c.17.42.51 1.26.67 1.68-.48.9-.95 1.8-1.43 2.71-.67-.68-1.34-1.36-1.99-2.05l2.46-.28c-.56-1.73-1.12-3.46-1.69-5.18zM19.23 60.05c1.27.63 1.25 1.32-.07 2.06-1.27-.63-1.25-1.32.07-2.06zM18.24 64.32c.76-.52 1.53-1.01 2.32-1.48.21 1.3.41 2.59.62 3.89 1.23.78 3.1.96 3.82 2.32l-.2 3.23c-.97-1.06-1.92-2.14-2.86-3.23-.8-.06-2.39-.2-3.19-.27.96-.48 1.91-.97 2.87-1.47-1.09-.89-4.62-.8-3.38-2.99zM87.24 64.35c1.47-1.18 3.07 1.4 1.61 2.38-1.47 1.14-3.12-1.41-1.61-2.38zM8.22 66c.9-1.2 3.4.09 2.25 1.45-.91 1.22-3.37-.07-2.25-1.45zM27.5 68.86c-.56-1.2.88-3.25 2.22-2.79.67 1.2-.87 3.34-2.22 2.79zM70.46 68.15c2.48-1.37 1.82 4.49-.37 3.66-.59-1.27-.47-2.49.37-3.66zM20.19 70.27c1.33.07 1.5 2.5.09 2.58-1.36-.09-1.52-2.48-.09-2.58zM61.45 70.22c1.14-.93 1.84-.71 2.09.67-1.14.93-1.84.71-2.09-.67zM8.87 72.82c.86-.61 2.27-.8 3.16-.16.66 2-3.64 2.14-3.16.16zM61.24 72.04c1.97 1.51 3.99 3.07 6.47 3.63-.52 1.68-.84 3.4-1.02 5.14-1.02 1.58-2.09 3.12-3.18 4.66-.38-1.29-.78-2.57-1.15-3.86 1.55-.73 3.4-1.15 4.3-2.79-1.5.29-2.99.62-4.47.97.76-1.73 1.49-3.48 2.25-5.22-.76.24-2.29.7-3.05.93l-.15-3.46zM64.08 86.96c1.31-2 2.61-4.01 3.93-6 .01 2.66.58 5.83-1.89 7.65-.51-.41-1.53-1.23-2.04-1.65zM53.04 95.63c1.26-.93 3.31.93 2.42 2.26-1.24 1.15-3.45-.96-2.42-2.26z"/></g><g fill="#9ca2a6"><path d="M53.19 6.14c1.66-.46 2.2.11 1.64 1.7-1.65.47-2.2-.1-1.64-1.7zM17.34 14.06c2.37-2.03 4.91-3.86 7.48-5.62 1 .34 2 .69 3 1.03-.88 2.07-1.7 4.17-2.39 6.31 1.31.09 2.61.17 3.91.26.14-.76.41-2.28.54-3.03.25 2.17.45 4.35.65 6.53 1.52.11 3.05.18 4.58.29-.62 5.08.82 10.22-.34 15.26-.27-4.9-.01-9.88-1.28-14.66-1.33-.05-2.66-.1-3.99-.16-.01-.78-.04-2.35-.05-3.13-1.43.48-2.86.97-4.28 1.46-.01-1.92.05-3.84.09-5.76-1.87.44-3.74.88-5.61 1.31.92 3.98-.36 7.98-.84 11.92-.9 4.38-2.36 8.89-5.54 12.18 4.07 1.32 7.11 4.27 9.88 7.4 4.57 3.94 8.22 8.82 10.83 14.25-1.26 2.81-2.17 5.81-3.92 8.36-1.59 2.27-4.71 3.82-4.51 6.96 2.69-.77 5.49-1.37 7.97-2.73 2.21-1.49 4.07-3.43 6.17-5.07-2.48 6.49-9.28 9.65-15.43 11.73 1.44 2.87 2.7 5.84 3.81 8.86 7.06.22 14.04-.99 21.02-1.85.91 1.55 1.81 3.1 2.74 4.64-.15-1.21-.31-2.42-.47-3.63 2.98-.12 5.96-.17 8.93-.08-.74-1.4-1.6-2.77-2.07-4.29-.4-3.73 1.4-7.86-.8-11.26-.29 1.75-.54 3.51-.75 5.27-.53-2.21-1.1-4.42-1.92-6.54 1.99-.29 3.99-.46 6-.63-2.94-1.29-6.71-2.2-7.7-5.71-1.62-4.97-1.86-10.37-1.74-15.56.38-.99-.04-3.15 1.48-3.09.6 2.79.4 5.66.3 8.48l1.5-4.17c.53 2.23 1.07 4.59 3.19 5.85-.48-1.08-.97-2.16-1.46-3.24.33-.41 1-1.24 1.33-1.66-1.9-2.56-3.42-5.38-5.42-7.87-.4-2.38-.72-4.85-2.05-6.93-1.12-2.29-3.25-4.42-2.88-7.16.15-2.46 1.46-4.61 2.58-6.74-.77-3.14-1.02-6.38-.62-9.59 1.01 1.19 2.57 2.22 2.65 3.94.35 4.07.61 8.16 1.76 12.11 1.28 4.45 1.13 9.43 3.65 13.45 3.66 3.11 7.78 5.68 11.29 9 4.88-4.21 8.07-10.17 13.63-13.58-.88-1.08-1.76-2.15-2.63-3.22.61-.04 1.84-.11 2.45-.14-.08-.38-.25-1.14-.34-1.52-.87.27-1.74.55-2.61.82-1.92-5.83-2.08-12.01-1.64-18.08-2.65-.65-5.97-.83-7.05-3.83 1.75-.72 3.42-2.12 5.41-1.98.9.88 1.26 2.07 1.73 3.19.51-.49 1.01-.98 1.51-1.47l2.12.92c.29.29.87.86 1.15 1.14.09.09.27.26.36.35.94.82 1.88 1.66 2.82 2.51-2.45-.07-4.9-.13-7.35-.12.42 1.9 2.07 2.83 3.65 3.64.45 1.13.9 2.26 1.34 3.39l-2.1 2.82c1.41.26 2.81.52 4.21.79-.47 1.27-.96 2.53-1.43 3.8 1.26.48 2.51.99 3.77 1.47-1.48.24-2.96.47-4.45.68 1.11.85 2.22 1.69 3.34 2.52-1.24-.26-2.47-.54-3.71-.83.07.51.19 1.54.25 2.05 1.14-.15 2.28-.29 3.42-.43 2.94-2.49 5.99-5.07 7.33-8.81 3.67 6.38 5.27 13.66 6.21 20.89v7.34l-.32-1.41c-1.21-4.37-1.11-8.99-2.4-13.33-.42.26-1.27.8-1.69 1.07-3.69 10.6-3 21.89-3.63 32.91l1.73.04C85.71 89.35 69.45 98.91 52.64 100h-4.89c-5.66-.83-11.38-1.74-16.62-4.15C18.86 90.71 8.94 80.33 4.38 67.84c-4.4-11.36-4.25-24.28.26-35.59 1.01 1.36 2.04 2.71 3.11 4.01.55-.29 1.64-.87 2.18-1.16.15.51.43 1.53.57 2.03 1.72-1.42 3.29-3.02 4.64-4.8-.71.69-1.43 1.39-2.14 2.09-1.91-1.01-3.85-1.98-5.75-3.01 1.46-.3 2.93-.62 4.39-.95.83.1 1.63.32 2.4.66 3.09-2.47 2.42-7.13 3.44-10.63-.96-1.46-1.66-2.97.58-3.56-.24-.95-.48-1.91-.72-2.87m32.77 3.34l-.42.64c1.01 2.2 2.95-1.43.42-.64m29.16 9.2c1.29-.32 1.5-1.09.64-2.33-1.27.31-1.49 1.09-.64 2.33m1.87.41c.15 3.32 2.99-1.51 0 0m8.65 10.24c-.85 2.21-3.13 2.95-5.25 3.29.69 2.02-1.57 3.43-2.29 5.06-.87-.84-1.71-1.7-2.56-2.56-.08.36-.23 1.08-.31 1.44-.05 1.57-1.6 4.49 1.09 4.42l.03-.46c-.59-1.22-.13-2.5.65-3.5 2.14 2.11.98 4.87.14 7.2-.8.12-2.42.34-3.22.46l3.17-.03c.88-1.44 1.76-2.88 2.62-4.33 2.84-1.04 3.59 4.24 5.77 2.65.14-3.04.83-5.99 2.01-8.8-1.09.35-2.17.69-3.25 1.03l1.82 2.12c-.96.17-1.91.34-2.87.5-.05.75-.14 2.25-.19 3-1.76-1.06-1.95-3.23-2.64-4.96 1.98-1.77 3.99-3.51 6.03-5.21-.26-.44-.5-.88-.75-1.32m2.11 3.86c2.84.12 4.48-2.37 5.67-4.55-2.09 1.25-4 2.78-5.67 4.55M6.13 42.39c-1.72.41-.63 2.94.86 2.66 1.6-.34.47-2.88-.86-2.66m8.14.73c-.54 1.61 0 2.18 1.63 1.7.55-1.62.01-2.19-1.63-1.7m62.99 1.14c.5.52.5.52 0 0m-20.49 3.86c.92.34 1.89.32 2.84.17.43 2.11 1.71 3.86 3.01 5.51l.81-.83c2.1 1.59 4.44 2.96 7.13 3.15 1.64-1.52 3.63-2.67 5.12-4.34 1.11-1.89 1.69-4.01 2.21-6.11-2.4 2.71-4.97 5.25-7.51 7.83-.88.15-1.76.29-2.64.44-.99-2.47-3.33-3.77-5.43-5.15l-.67 1.34c-.82-1.3-1.1-3.24-2.7-3.84-1.82-.77-2.54-.16-2.17 1.83M6.4 47.61c-.27 1.49.24 1.95 1.53 1.37.28-1.4-.23-1.86-1.53-1.37m9.96.98c-.41 1.01-.82 2.03-1.21 3.04.69.01 2.07.02 2.77.02-.24-1.16-.47-2.37-1.56-3.06m-9.85 1.57c-1.26 1.2.66 3.8 2.08 2.5 1.41-1.28-.6-3.75-2.08-2.5m55.48 18.37c.93-1.11 1.87-2.21 2.81-3.31.73.62 1.45 1.24 2.18 1.87.53-.28 1.58-.84 2.1-1.12.93.41 1.86.81 2.8 1.21 1.09-3.41 2.08-6.85 3.07-10.29-1.56.93-3.06 2.08-4.86 2.51-3.79-.32-6.48-3.33-9.74-4.94-.34-.45-1.03-1.34-1.37-1.79 1.51 5.18 3.72 10.3 3.01 15.86M28.07 53.7c.28 1.16.57 2.31.88 3.46-2.9 1.54-4.89 4.13-6.54 6.9 1.34-.61 2.68-1.23 4.02-1.86-.45 1.2-.91 2.39-1.35 3.59.29.18.86.56 1.15.74 1.15-.91 2.43-1.62 3.81-2.11-.73-.32-2.19-.98-2.92-1.3.66-1.55 1.31-3.1 1.95-4.66.35.07 1.05.19 1.4.25-.69-1.72-1.42-3.43-2.4-5.01M7.19 55.84c1.22.87 1.99.67 2.3-.61-1.24-.88-2.01-.68-2.3.61m13.89.62c-.64 1.38-.01 4.37 1.74 4.39.44-1.41-.34-3.91-1.74-4.39m64.91 3.55l3.38-.16c-.12-1.48-.25-2.95-.39-4.43-1.62 1.08-2.42 2.79-2.99 4.59M7.75 61.24c.66-.4 2-1.19 2.67-1.59-1.11-.85-2.21-1.7-3.31-2.55.21 1.38.42 2.76.64 4.14m9.47-4.32c-.59 1.62-.07 2.21 1.56 1.77.59-1.62.07-2.21-1.56-1.77m39.56-.09c.57 1.72 1.13 3.45 1.69 5.18l-2.46.28c.65.69 1.32 1.37 1.99 2.05.48-.91.95-1.81 1.43-2.71-.16-.42-.5-1.26-.67-1.68l1.08-1.76c-1.02-.45-2.04-.91-3.06-1.36m-37.55 3.22c-1.32.74-1.34 1.43-.07 2.06 1.32-.74 1.34-1.43.07-2.06m-.99 4.27c-1.24 2.19 2.29 2.1 3.38 2.99-.96.5-1.91.99-2.87 1.47.8.07 2.39.21 3.19.27.94 1.09 1.89 2.17 2.86 3.23l.2-3.23c-.72-1.36-2.59-1.54-3.82-2.32-.21-1.3-.41-2.59-.62-3.89-.79.47-1.56.96-2.32 1.48m69 .03c-1.51.97.14 3.52 1.61 2.38 1.46-.98-.14-3.56-1.61-2.38M8.22 66c-1.12 1.38 1.34 2.67 2.25 1.45 1.15-1.36-1.35-2.65-2.25-1.45m19.28 2.86c1.35.55 2.89-1.59 2.22-2.79-1.34-.46-2.78 1.59-2.22 2.79m42.96-.71c-.84 1.17-.96 2.39-.37 3.66 2.19.83 2.85-5.03.37-3.66m-50.27 2.12c-1.43.1-1.27 2.49.09 2.58 1.41-.08 1.24-2.51-.09-2.58m41.26-.05c.25 1.38.95 1.6 2.09.67-.25-1.38-.95-1.6-2.09-.67m-52.58 2.6c-.48 1.98 3.82 1.84 3.16-.16-.89-.64-2.3-.45-3.16.16m52.37-.78l.15 3.46c.76-.23 2.29-.69 3.05-.93-.76 1.74-1.49 3.49-2.25 5.22 1.48-.35 2.97-.68 4.47-.97-.9 1.64-2.75 2.06-4.3 2.79.37 1.29.77 2.57 1.15 3.86 1.09-1.54 2.16-3.08 3.18-4.66.18-1.74.5-3.46 1.02-5.14-2.48-.56-4.5-2.12-6.47-3.63m2.84 14.92c.51.42 1.53 1.24 2.04 1.65 2.47-1.82 1.9-4.99 1.89-7.65-1.32 1.99-2.62 4-3.93 6m-11.04 8.67c-1.03 1.3 1.18 3.41 2.42 2.26.89-1.33-1.16-3.19-2.42-2.26zM11.36 20.49l.76-.96c1.36.05 2.71.15 4.07.27-.11 1.32-.21 2.64-.32 3.96-.46-.32-1.37-.96-1.82-1.29.5 2.14 1.02 4.29 1.01 6.5-3.05.21-6.09.62-9.08 1.29 1.7-1.9 3.71-3.47 5.93-4.71.63.76 1.25 1.52 1.88 2.29-1.32-2.25-2.19-4.74-2.43-7.35zM84.16 46.09c1.21.7 1.14 1.39-.22 2.08-1.22-.71-1.15-1.4.22-2.08zM88.25 47.23c.52.51.52.51 0 0zM26.19 60.26c3.33.19-1.58 2.98 0 0zM52.91 71.07c.51.24 1.54.73 2.05.98l.09 5.18c-1.94-1.55-3.15-3.75-2.14-6.16z"/></g></svg>