<svg xmlns="http://www.w3.org/2000/svg" xmlns:xlink="http://www.w3.org/1999/xlink" width="136.833" height="136.834" viewBox="0 0 136.833 136.834"><style type="text/css"><![CDATA[
	.st0{fill-rule:evenodd;clip-rule:evenodd;fill:#08090B;}
	.st1{fill:#7BCCC7;}
	.st2{fill:#48584B;}
	.st3{fill:#AC782B;}
	.st4{fill:#49A0AE;}
	.st5{fill:#121212;}
	.st6{fill:#E1E1E1;}
	.st7{fill:#E3E2E2;}
	.st8{fill:none;stroke:#202121;stroke-width:0.5;stroke-miterlimit:10;}
	.st9{fill:#E4E4E4;}
	.st10{fill:#4ABC96;}
	.st11{fill:#E5E5E5;}
	.st12{fill:#4B4A4B;}
	.st13{fill:#E84849;stroke:#FFFFFF;stroke-width:3;}
	.st14{fill:none;stroke:#121212;stroke-miterlimit:10;}
	.st15{fill:#E79E2D;}
	.st16{fill:#E7E7E7;}
	.st17{fill:#4D4D4D;}
	.st18{fill:#4D8A97;}
	.st19{fill:#E84849;}
	.st20{fill:#807F7F;}
	.st21{fill:#B03738;}
	.st22{fill:#818282;}
	.st23{fill:#81C681;}
	.st24{opacity:0.5;fill:#202121;}
	.st25{fill:#B2B2B2;}
	.st26{fill:#B2D0CC;}
	.st27{fill:#83CECA;}
	.st28{fill:#1A1919;}
	.st29{fill:#B5DBAF;}
	.st30{fill:#EB9682;}
	.st31{fill:#EBEDEF;}
	.st32{fill:#B8B9BA;}
	.st33{fill:#ECA448;}
	.st34{fill:#1E261F;}
	.st35{fill:#ECECEC;}
	.st36{fill:#EDBF00;}
	.st37{fill:#EDC92C;}
	.st38{fill:#EDEEEF;}
	.st39{fill:#505251;}
	.st40{fill:#EFC849;}
	.st41{opacity:0.15;fill:#626463;}
	.st42{opacity:0.3;fill:url(#SVGID_16_);}
	.st43{opacity:0.3;fill:url(#SVGID_17_);}
	.st44{opacity:0.3;fill:url(#SVGID_27_);}
	.st45{opacity:0.3;fill:url(#SVGID_28_);}
	.st46{opacity:0.3;fill:url(#SVGID_33_);}
	.st47{opacity:0.3;fill:url(#SVGID_34_);}
	.st48{opacity:0.3;fill:url(#SVGID_37_);}
	.st49{opacity:0.3;fill:url(#SVGID_38_);}
	.st50{fill:none;stroke:#B8B9BA;stroke-width:0.5;stroke-miterlimit:10;}
	.st51{fill:#202121;}
	.st52{fill:#232C25;}
	.st53{fill:#F28400;}
	.st54{fill:#256533;}
	.st55{fill:#F3F4F5;}
	.st56{fill:#263A45;}
	.st57{fill:#265E67;}
	.st58{fill:#F5E554;}
	.st59{fill:#F6A2A3;}
	.st60{fill:#28302A;}
	.st61{fill:#5CA39B;}
	.st62{fill:#5E7564;}
	.st63{fill-rule:evenodd;clip-rule:evenodd;fill:#EDC92C;}
	.st64{opacity:0.2;fill:#FFFFFF;}
	.st65{fill:url(#SVGID_1_);}
	.st66{fill:url(#SVGID_2_);}
	.st67{fill:url(#SVGID_3_);}
	.st68{fill:url(#SVGID_4_);}
	.st69{fill:url(#SVGID_5_);}
	.st70{fill:url(#SVGID_6_);}
	.st71{fill:url(#SVGID_7_);}
	.st72{fill:#C2DFDD;}
	.st73{fill:#C5E2E5;}
	.st74{fill:#98979B;}
	.st75{fill:#989897;}
	.st76{fill:#989A9A;}
	.st77{fill:#C9C9C8;}
	.st78{fill:#2F3A32;}
	.st79{fill:#2F8442;}
	.st80{opacity:0.7;}
	.st81{fill:#60C3B6;}
	.st82{fill:#FFFFFF;}
	.st83{fill:#626463;}
	.st84{fill:#636463;}
	.st85{fill-rule:evenodd;clip-rule:evenodd;fill:#F37C2A;}
	.st86{fill:none;}
	.st87{fill:#676767;}
	.st88{fill:#676969;}
	.st89{fill:#67B4AD;}
	.st90{fill:#67B8CB;}
	.st91{fill:#CBCBC9;}
	.st92{fill:#CCCBCF;}
	.st93{fill:#CCE9E9;}
	.st94{fill:#CDCCCB;}
	.st95{fill:#CDE9E6;}
	.st96{fill:#30302F;}
	.st97{fill-rule:evenodd;clip-rule:evenodd;fill:#F9C645;}
	.st98{opacity:0.7;fill:#FFFFFF;}
	.st99{fill:#343433;}
	.st100{fill:#343434;}
	.st101{fill:#344E5D;}
	.st102{fill:#357180;}
	.st103{opacity:0.25;fill:#DFF1F5;}
	.st104{fill:#6CC077;}
	.st105{fill:#6EBCB5;}
	.st106{fill:none;stroke:#67B8CB;stroke-width:0.5;stroke-miterlimit:10;}
	.st107{fill:#D2D2D2;}
	.st108{fill:#D3D4E3;}
	.st109{fill:#D4A160;}
	.st110{fill:#08090B;}
	.st111{fill:#3CB881;}
	.st112{fill:#D7DABA;}
	.st113{fill:#3D4040;}
	.st114{fill:url(#SVGID_10_);}
	.st115{fill:url(#SVGID_11_);}
	.st116{fill:url(#SVGID_12_);}
	.st117{fill:url(#SVGID_13_);}
	.st118{fill:url(#SVGID_22_);}
	.st119{fill:url(#SVGID_23_);}
	.st120{fill:url(#SVGID_24_);}
	.st121{fill:url(#SVGID_29_);}
	.st122{fill:url(#SVGID_30_);}
	.st123{fill:url(#SVGID_41_);}
	.st124{opacity:0.1;fill:#FFFFFF;}
	.st125{fill:#A07238;}
	.st126{fill:#717171;}
	.st127{clip-path:url(#SVGID_15_);}
	.st128{clip-path:url(#SVGID_19_);}
	.st129{clip-path:url(#SVGID_21_);}
	.st130{clip-path:url(#SVGID_26_);}
	.st131{clip-path:url(#SVGID_32_);}
	.st132{clip-path:url(#SVGID_36_);}
	.st133{clip-path:url(#SVGID_40_);}
	.st134{fill:#A4A5A4;}
	.st135{fill:#767676;}
	.st136{fill:#767879;}
	.st137{fill:#DBF0F5;}
	.st138{fill:#DC494A;}
	.st139{fill:#DCDBDC;}
	.st140{fill:#0EA24A;}
	.st141{fill:#404040;}
	.st142{fill:#DFDFDF;}
	.st143{fill:#447A74;}
]]></style><circle class="st36" cx="68.416" cy="68.418" r="63.333"/><path class="st55" d="M93.308 106.664c0 5.815-2.084 7.897-7.898 7.897H53.817c-5.816 0-7.898-2.08-7.898-7.896V32.95c0-5.816 2.08-7.898 7.897-7.898H85.41c5.813 0 7.897 2.082 7.897 7.897v73.714z"/><linearGradient id="SVGID_1_" gradientUnits="userSpaceOnUse" x1="69.503" y1="33.607" x2="69.503" y2="105.128"><stop offset="0" stop-color="#5978BA"/><stop offset=".703" stop-color="#4E9DB8"/><stop offset="1" stop-color="#379CC9"/></linearGradient><path class="st65" d="M48.112 33.607h42.78v71.52h-42.78z"/><path class="st104" d="M53.034 63.155h33.264c.816 0 1.475-.66 1.475-1.474v-5.348l-2.754-2.754S83.454 51.56 82 51.643c-1.31.075-2.835 1.713-3.128 2.037l-1.832-1.83s-1.832-2.363-3.537-2.27c-1.705.1-3.74 2.473-3.74 2.473l-.557.558-3.447-3.447s-2.255-2.904-4.35-2.786c-2.093.118-4.597 3.034-4.597 3.034l-5.256 5.257v7.016c0 .812.663 1.472 1.477 1.472z"/><path class="st137" d="M61.41 46.376c2.095-.118 4.35 2.786 4.35 2.786l3.446 3.448.557-.558s2.035-2.374 3.74-2.472c1.705-.095 3.537 2.27 3.537 2.27l1.832 1.83c.293-.323 1.818-1.96 3.13-2.036 1.452-.082 3.017 1.935 3.017 1.935l2.753 2.753V42.458c0-.815-.658-1.477-1.475-1.477H53.034c-.814 0-1.477.662-1.477 1.478v12.208l5.256-5.256s2.504-2.916 4.596-3.034z"/><path class="st32" d="M74.345 28.05c0 .332-.39.6-.87.6h-7.72c-.482 0-.873-.268-.873-.6 0-.33.39-.6.873-.6h7.72c.48 0 .87.27.87.6z"/><circle class="st82" cx="69.6" cy="88.535" r="1.206"/><circle class="st82" cx="73.987" cy="88.535" r=".768"/><circle class="st82" cx="77.497" cy="88.535" r=".768"/><circle class="st82" cx="61.701" cy="88.535" r=".769"/><circle class="st82" cx="65.212" cy="88.535" r=".768"/><path class="st24" d="M48.112 33.607h42.762v3.585H48.112z"/><circle class="st82" cx="84.477" cy="35.29" r=".913"/><circle class="st82" cx="50.307" cy="35.29" r=".913"/><circle class="st82" cx="88.645" cy="35.29" r=".913"/><defs><path id="SVGID_8_" d="M48.112 33.607h42.78v71.52h-42.78z"/></defs><clipPath id="SVGID_2_"><use xlink:href="#SVGID_8_" overflow="visible"/></clipPath><path class="st29" d="M58.593 81.965c0 .814-.66 1.474-1.475 1.474h-4.305c-.816 0-1.477-.66-1.477-1.475V77.66c0-.817.66-1.478 1.477-1.478h4.305c.814 0 1.475.66 1.475 1.477v4.305z"/><path class="st59" d="M68.356 81.965c0 .814-.662 1.474-1.477 1.474h-4.304c-.816 0-1.477-.66-1.477-1.475V77.66c0-.817.66-1.478 1.476-1.478h4.303c.813 0 1.476.66 1.476 1.477v4.305z"/><path class="st90" d="M78.118 81.965c0 .814-.662 1.474-1.475 1.474h-4.305c-.814 0-1.48-.66-1.48-1.475V77.66c0-.817.665-1.478 1.48-1.478h4.305c.813 0 1.475.66 1.475 1.477v4.305z"/><path class="st58" d="M87.88 81.965c0 .814-.66 1.474-1.475 1.474H82.1c-.816 0-1.475-.66-1.475-1.475V77.66c0-.817.658-1.478 1.475-1.478h4.305c.814 0 1.475.66 1.475 1.477v4.305z"/><path class="st106" d="M87.77 69.68c0 .813-.657 1.473-1.474 1.473H53.032c-.814 0-1.477-.66-1.477-1.473v-1.674c0-.815.662-1.476 1.477-1.476h33.264c.816 0 1.475.66 1.475 1.476v1.674z"/><circle class="st137" cx="84.333" cy="68.38" r="1.096"/><path class="st137" d="M86.315 70.375c-.086.085-.25.06-.365-.056l-1.232-1.233c-.115-.114-.14-.277-.055-.363l.11-.11c.085-.086.25-.06.364.057l1.232 1.23c.114.117.14.28.052.366l-.107.11z"/><path class="st90" d="M56.917 98.443c0 .662-.537 1.2-1.2 1.2H52.21c-.664 0-1.203-.538-1.203-1.2v-3.508c0-.663.54-1.2 1.203-1.2h3.506c.664 0 1.2.537 1.2 1.2v3.508z"/><path class="st58" d="M64.87 98.443c0 .662-.54 1.2-1.203 1.2H60.16c-.663 0-1.2-.538-1.2-1.2v-3.508c0-.663.537-1.2 1.2-1.2h3.507c.662 0 1.203.537 1.203 1.2v3.508z"/><path class="st29" d="M72.82 98.443c0 .662-.54 1.2-1.202 1.2h-3.506c-.664 0-1.203-.538-1.203-1.2v-3.508c0-.663.538-1.2 1.202-1.2h3.506c.662 0 1.2.537 1.2 1.2v3.508z"/><path class="st108" d="M80.77 98.443c0 .662-.538 1.2-1.2 1.2h-3.506c-.666 0-1.2-.538-1.2-1.2v-3.508c0-.663.534-1.2 1.2-1.2h3.506c.662 0 1.2.537 1.2 1.2v3.508z"/><path class="st59" d="M88.67 98.443c0 .662-.54 1.2-1.202 1.2h-3.506c-.666 0-1.203-.538-1.203-1.2v-3.508c0-.663.536-1.2 1.202-1.2h3.506c.662 0 1.2.537 1.2 1.2v3.508z"/><path class="st50" d="M74.423 110.31c0 .892-.543 1.615-1.213 1.615h-7.117c-.668 0-1.21-.724-1.21-1.615v-1.146c0-.893.542-1.615 1.21-1.615h7.117c.67 0 1.213.722 1.213 1.614v1.146z"/><circle class="st32" cx="75.632" cy="28.093" r=".658"/><circle class="st32" cx="77.388" cy="28.093" r=".658"/><circle class="st32" cx="83.694" cy="28.367" r=".885"/></svg>