<svg xmlns="http://www.w3.org/2000/svg" width="136.833" height="136.834" viewBox="0 0 136.833 136.834"><style type="text/css"><![CDATA[
	.st0{fill:#AA7435;}
	.st1{fill:#AA7853;}
	.st2{fill:#49341B;}
	.st3{fill:#AC7753;}
	.st4{fill:#49A0AE;}
	.st5{fill:#ACDDDE;}
	.st6{fill:#AD6227;}
	.st7{fill:#AE7C31;}
	.st8{fill:#AE8038;}
	.st9{fill:#AF7B59;}
	.st10{fill:#E0E8EA;}
	.st11{fill:#E17A2D;}
	.st12{fill:#159F57;}
	.st13{fill:#15AA63;}
	.st14{fill:#4B3937;}
	.st15{fill:#4CB648;}
	.st16{fill:#E79E2D;}
	.st17{fill:#E7E6E6;}
	.st18{fill:#4D8353;}
	.st19{fill:#E97E88;}
	.st20{fill:#4F412F;}
	.st21{fill:#805C26;}
	.st22{fill:#82623E;}
	.st23{fill:#82766E;}
	.st24{fill:#B28D5D;}
	.st25{fill:none;stroke:#49341B;stroke-width:5;stroke-linecap:round;stroke-linejoin:round;stroke-miterlimit:10;}
	.st26{fill:#B38669;}
	.st27{fill:#84654F;}
	.st28{fill:#84B340;}
	.st29{fill:#B58C4F;}
	.st30{fill:#1AAA5B;}
	.st31{fill:#886A4B;}
	.st32{fill:#1D1D1D;}
	.st33{fill:#896852;}
	.st34{fill:#ECEBE9;}
	.st35{fill:#B9803D;}
	.st36{fill:#1EAE64;}
	.st37{fill:#B9CD33;}
	.st38{fill:#EDC92C;}
	.st39{fill:#EF4F29;}
	.st40{fill:#EFEFEF;}
	.st41{fill:#53431F;}
	.st42{fill:#564635;}
	.st43{fill:#8A6638;}
	.st44{fill:#57564E;}
	.st45{fill:#57803A;}
	.st46{fill:#8B7363;}
	.st47{fill:#BB996C;}
	.st48{fill:#8C6D4A;}
	.st49{fill:#8C7B69;}
	.st50{fill:#BBBBBB;}
	.st51{fill:#8D6341;}
	.st52{fill:#8E6E56;}
	.st53{fill:#BE9041;}
	.st54{fill:#232323;}
	.st55{fill:#F3CED1;}
	.st56{fill:#F48C92;}
	.st57{fill:#F4C6C8;}
	.st58{fill:#F4DF81;}
	.st59{fill:#F4E028;}
	.st60{fill:#F5F3E2;}
	.st61{fill:#F5F6F7;}
	.st62{fill:#28B467;}
	.st63{fill:#5D2611;}
	.st64{fill:#F8F1E4;}
	.st65{fill:#C04727;}
	.st66{fill:#91722F;}
	.st67{fill:#917853;}
	.st68{fill:#C0BDBB;}
	.st69{fill:#C15832;}
	.st70{fill:#926D3E;}
	.st71{fill:#927352;}
	.st72{fill:#C28B4F;}
	.st73{fill:#937A5E;}
	.st74{fill:#C39269;}
	.st75{fill:#946F3B;}
	.st76{fill:#966439;}
	.st77{fill:#98732B;}
	.st78{fill:#99806D;}
	.st79{fill:#99AEB2;}
	.st80{fill:#2E2010;}
	.st81{opacity:0.8;}
	.st82{fill:#FFFFFF;}
	.st83{fill:#643014;}
	.st84{fill:#65A844;}
	.st85{fill:#66472A;}
	.st86{fill:#666866;}
	.st87{fill:#9A652D;}
	.st88{fill:#9ACA42;}
	.st89{fill-rule:evenodd;clip-rule:evenodd;fill:#F5F3E2;}
	.st90{fill:#CAB252;}
	.st91{fill:#9C653E;}
	.st92{fill:#9C7B2F;}
	.st93{fill:#CBB5A2;}
	.st94{fill:#693215;}
	.st95{fill:#9E6D46;}
	.st96{fill:#9E8166;}
	.st97{fill:#30251A;}
	.st98{fill:#9F7150;}
	.st99{fill:#9F7235;}
	.st100{fill:#9F772B;}
	.st101{fill:#31312F;}
	.st102{fill:#344E5D;}
	.st103{fill:#357180;}
	.st104{fill:#6A5D56;}
	.st105{fill:#6F4D21;}
	.st106{fill:#6F933D;}
	.st107{fill:#D2D2D2;}
	.st108{fill:#D65228;}
	.st109{fill-rule:evenodd;clip-rule:evenodd;fill:#CAB252;}
	.st110{fill:#D7DABA;}
	.st111{fill:#3D3123;}
	.st112{fill:#3E3940;}
	.st113{fill:#A07649;}
	.st114{fill:#717272;}
	.st115{fill:#A0D2DC;}
	.st116{fill:#73903C;}
	.st117{fill:#A2D4DE;}
	.st118{fill:#A38876;}
	.st119{fill:#744A20;}
	.st120{fill:#A45B26;}
	.st121{fill:#A47E2D;}
	.st122{fill:#A48131;}
	.st123{fill:#763517;}
	.st124{fill:#765422;}
	.st125{fill:#A66C41;}
	.st126{fill:#A67F52;}
	.st127{fill:#775625;}
	.st128{fill:#A6BEC4;}
	.st129{fill:#DBB281;}
	.st130{fill:#795B25;}
	.st131{fill:#DCD478;}
	.st132{fill:#DCDCDB;}
	.st133{fill:#0E9554;}
	.st134{fill:#A9714A;}
	.st135{fill:#A9A9A8;}
	.st136{fill:#DFDEDD;}
]]></style><circle class="st84" cx="68.416" cy="67.559" r="63.333"/><path class="st111" d="M58.953 47.787c0-5.585 4.568-8.342 10.203-8.342s10.202 2.757 10.202 8.342c0 .118-.002 6.28-.007 6.397l-20.392-.05c-.003-.1-.005-6.246-.005-6.347zM93.066 57.862H87.79c-.775 0-1.405-.63-1.405-1.406 0-.777.63-1.406 1.406-1.406h3.87v-7.736c0-.374.147-.73.41-.995 0 0 8.472-7.582 9.022-7.033.55.55-6.62 8.61-6.62 8.61v8.56c0 .775-.63 1.405-1.406 1.405zM104.67 77.2c-.417 0-.83-.185-1.106-.537l-7.313-9.308h-7.756c-.776 0-1.406-.63-1.406-1.406s.63-1.408 1.406-1.408h8.44c.43 0 .84.2 1.105.538l6.89 8.772s7.09-4.44 7.55-3.815c.46.625-6.978 6.89-6.978 6.89-.25.184-.542.274-.832.274zM96.387 94.105c-.3-.25-.484-.614-.506-1.005l-.662-11.902-7.783-4.54c-.67-.392-.897-1.253-.506-1.925.39-.67 1.25-.897 1.922-.505l8.438 4.922c.41.238.67.666.696 1.137l.67 12.045s12.514 11.187 12.02 11.785c-.28.336-14.29-10.012-14.29-10.012zM50.872 57.862h-5.274c-.775 0-1.406-.63-1.406-1.406v-8.56s-7.17-8.06-6.62-8.61c.55-.548 9.02 7.033 9.02 7.033.266.263.413.62.413.994v7.736h3.868c.777 0 1.407.63 1.407 1.406 0 .776-.63 1.406-1.408 1.406zM33.995 77.2c-.29 0-.583-.088-.835-.274 0 0-7.438-6.264-6.978-6.89.46-.623 7.55 3.816 7.55 3.816l6.892-8.772c.267-.34.676-.538 1.106-.538h8.438c.777 0 1.407.63 1.407 1.407s-.63 1.405-1.407 1.405h-7.755L35.1 76.663c-.276.352-.69.538-1.105.538zM27.988 104.117c-.493-.6 12.02-11.785 12.02-11.785l.67-12.045c.026-.47.287-.9.695-1.137l8.438-4.922c.675-.392 1.533-.166 1.925.505.393.672.166 1.533-.505 1.924l-7.784 4.54-.663 11.903c-.02.39-.205.755-.506 1.005 0 0-14.01 10.348-14.29 10.012zM88.647 82.45c0 12.635-8.728 22.88-19.49 22.88s-19.49-10.246-19.49-22.88c0-.27.002-29.54.01-29.807l38.963.115c.005.228.007 29.462.007 29.692z"/><path class="st42" d="M89.08 52.792c-.005-.187-.128-.35-.306-.408-.114-.036-11.395-3.652-20.18-3.652-8.79 0-18.962 3.518-19.064 3.552-.17.06-.288.222-.295.404-.008.248-.012 26.538-.012 26.802 0 11.583 8.942 21.006 19.933 21.006S89.09 91.073 89.09 79.49c0-.263-.005-26.485-.01-26.698z"/><path class="st20" d="M68.594 48.732c-8.79 0-18.96 3.518-19.063 3.552-.17.06-.287.222-.294.404-.008.248-.012 26.538-.012 26.802 0 11.583 8.942 21.006 19.933 21.006l-.563-51.764z"/><path class="st111" d="M70.21 103.25c0 .582-.47 1.055-1.054 1.055-.583 0-1.055-.473-1.055-1.055 0 0 .473-26.167 1.056-26.167.583 0 1.055 26.167 1.055 26.167z"/><path class="st97" d="M75.718 45.79c-.24 0-.486-.063-.71-.195-.67-.393-.895-1.253-.5-1.923.403-.688 10.03-16.835 23.52-17.57.76-.044 1.44.552 1.482 1.33.044.774-.553 1.437-1.326 1.48-11.98.653-21.16 16.03-21.25 16.184-.264.446-.734.694-1.216.694z"/><circle class="st97" cx="98.105" cy="27.505" r="2.109"/><path class="st97" d="M63.18 45.79c-.48 0-.95-.248-1.214-.694-.09-.155-9.27-15.53-21.25-16.185-.774-.04-1.37-.705-1.328-1.48.043-.776.704-1.372 1.483-1.328 13.49.735 23.118 16.882 23.522 17.57.394.67.17 1.53-.5 1.923-.224.132-.47.195-.71.195z"/><circle class="st97" cx="39.973" cy="27.505" r="2.109"/></svg>