<svg xmlns="http://www.w3.org/2000/svg" width="512" height="512" viewBox="0 0 512 512"><path fill-rule="evenodd" clip-rule="evenodd" fill="#F05A29" d="M256 1C115.162 1 1 115.17 1 256c0 140.83 114.162 255 255 255 140.83 0 255-114.17 255-255C511 115.17 396.83 1 256 1z"/><path fill-rule="evenodd" clip-rule="evenodd" fill="#FFF5E5" d="M343.088 444.273v51.462c9.597-3.478 18.915-7.535 27.933-12.096v-39.367H343.09zm-202.123 39.36c9.018 4.56 18.343 8.617 27.933 12.095v-51.455h-27.933v39.36z"/><path fill-rule="evenodd" clip-rule="evenodd" fill="#121325" d="M324.12 368.355v-7.39h-15.506c-10.77-4.028-22.408-6.24-34.542-6.24H237.92c-12.134 0-23.77 2.212-34.54 6.24h-15.507v7.383c-28.994 17.04-48.7 48.376-49.257 84.137h49.257v49.302C209.565 507.777 232.403 511 256 511s46.435-3.222 68.12-9.213v-49.302h49.256c-.557-35.76-20.263-67.096-49.257-84.13z"/><path fill-rule="evenodd" clip-rule="evenodd" fill="#FFF5E5" d="M138.052 236.92c-12.87 0-23.312 10.432-23.312 23.303 0 12.88 10.44 23.32 23.312 23.32 12.88 0 23.318-10.44 23.318-23.32 0-12.87-10.44-23.304-23.318-23.304zm235.882 0c-12.872 0-23.312 10.432-23.312 23.303 0 12.88 10.44 23.32 23.312 23.32 12.878 0 23.31-10.44 23.31-23.32 0-12.87-10.432-23.304-23.31-23.304zM256 340.687l-32.953 32.945L256 406.585l32.945-32.953z"/><path fill="#FFF5E5" d="M385.314 191.147H126.68l20.525 121.297c0 17.064 6.134 32.592 16.01 43.845 9.867 11.252 23.5 18.237 38.478 18.237H310.3c14.994 0 28.618-6.985 38.485-18.223l-.015-.015c9.883-11.254 16.018-26.782 16.018-43.846l20.526-121.297z"/><path fill-rule="evenodd" clip-rule="evenodd" fill="#121325" d="M313.152 310.97c-.49-1.355-1.573-3.402-3.16-3.402 1.858 6.248-12.902 15.49-25.3 2.514-7.933-8.295-15.505-21.3-28.7-16.44-13.194-4.86-20.76 8.145-28.692 16.44-12.397 12.977-27.158 3.733-25.3-2.514-1.587 0-2.686 2.047-3.16 3.402-1.535 4.32 2.062 8.8 8.498 12.05 3.688 1.868 8.837 2.47 13.074 2.673 11.178.52 24.274-6.112 35.58-17.282 11.306 11.17 24.41 17.802 35.588 17.283 4.238-.203 9.38-.805 13.067-2.672 6.428-3.25 10.04-7.73 8.505-12.05zM348.243 199.48l-13.54-172.91c-.415-5.21-1.875-10.147-4.186-14.498C306.942 4.884 281.923 1 256 1c-25.93 0-50.95 3.884-74.525 11.072-2.317 4.35-3.77 9.288-4.177 14.497l-13.54 172.91c-1.356 17.206 14.135 31.402 31.4 31.402h121.683c17.26 0 32.743-14.195 31.403-31.403z"/><path fill-rule="evenodd" clip-rule="evenodd" fill="#fff" d="M294.388 89.435l-28.874-.625L256 61.532l-9.507 27.278-28.89.535 23.027 17.492-8.356 27.632L256 117.94l23.627 16.53-8.265-27.633z"/><path fill-rule="evenodd" clip-rule="evenodd" fill="#181E42" d="M403.318 162.95H108.674c-6.353 0-11.562 5.202-11.562 11.563v44.808c0 6.36 5.21 11.563 11.562 11.563H403.32c6.36 0 11.56-5.2 11.56-11.562v-44.807c0-6.36-5.2-11.562-11.562-11.562z"/><path fill-rule="evenodd" clip-rule="evenodd" fill="#121325" d="M244.958 336.29L256 359.753l11.034-23.46z"/></svg>