<svg xmlns="http://www.w3.org/2000/svg" width="512" height="512" viewBox="0 0 512 512"><path fill-rule="evenodd" clip-rule="evenodd" fill="#C2E8F5" d="M255.996 1C115.166 1 1 115.176 1 256c0 140.84 114.167 255 254.996 255C396.833 511 511 396.84 511 256 511 115.176 396.833 1 255.996 1z"/><path fill-rule="evenodd" clip-rule="evenodd" fill="#99DBF0" d="M510.233 236.216H1.767C1.26 242.746 1 249.344 1 256c0 140.832 114.167 255 254.996 255C396.833 511 511 396.832 511 256c0-6.656-.26-13.254-.767-19.784zM51.668 408.574C98.175 470.764 172.388 511 255.996 511c83.624 0 157.836-40.237 204.335-102.426H51.67z"/><path fill-rule="evenodd" clip-rule="evenodd" fill="#FC7D24" d="M369.835 350.325c-11.16 21.243-24.936 37.267-40.974 48.763v16.262h83.454v-16.917c-19.092-14.69-33.134-30.767-42.48-48.108z"/><path fill-rule="evenodd" clip-rule="evenodd" fill="#CF6100" d="M369.835 350.325c-11.16 21.243-24.936 37.267-40.974 48.763v16.262h41.147v-64.72l-.172-.305z"/><path fill-rule="evenodd" clip-rule="evenodd" fill="#F7A12E" d="M370.006 363.08v9.48c3.373 17.206 11.504 30.713 19.74 42.627l9.954-16.754c-15.085-7.782-23.908-20.402-29.694-35.353z"/><path fill-rule="evenodd" clip-rule="evenodd" fill="#093" d="M343.38 408.478l-17.312-51.116-.365-1.064c-.35-1.035-1.177-1.23-1.824-1.095-.88.18-1.08.826-1.334 1.593l-18.093 53.417c-3.32 9.8 12.88 7.714 20.09 8.266 9.62-.777 22.903 2.022 18.837-10.002z"/><path fill="#033" d="M335.04 406.876c-.55-.833-1.674-1.064-2.508-.52l-6.232 4.094v-4.55c.067-.044.134-.096.194-.155l5.22-5.235c.714-.7.714-1.854 0-2.568-.708-.707-1.87-.707-2.57 0l-2.844 2.845v-4.825c0-1.013-.812-1.824-1.816-1.824-.998 0-1.817.812-1.817 1.824v4.825l-2.844-2.845c-.715-.707-1.87-.707-2.576 0-.715.715-.715 1.87 0 2.568l5.227 5.235c.06.06.127.11.194.156v4.55l-6.24-4.095c-.834-.544-1.95-.312-2.5.52-.56.843-.32 1.967.513 2.51l7.945 5.235c.09.052.18.097.283.142v20.625c0 1.005.82 1.81 1.817 1.81 1.005 0 1.816-.805 1.816-1.81v-20.625c.09-.045.195-.09.277-.142l7.944-5.234c.834-.544 1.072-1.668.52-2.51z"/><path fill-rule="evenodd" clip-rule="evenodd" fill="#093" d="M426.952 412.625l-9.992-29.5-.208-.627c-.208-.595-.685-.7-1.057-.625-.506.104-.625.477-.767.908l-10.454 30.842c-1.906 5.66 7.446 4.453 11.593 4.766 5.56-.44 13.238 1.17 10.885-5.763z"/><path fill="#033" d="M422.127 411.7c-.312-.482-.953-.61-1.437-.297l-3.596 2.368v-2.635l.11-.09 3.017-3.016c.41-.41.41-1.08 0-1.49-.416-.41-1.08-.41-1.488 0l-1.638 1.646v-2.784c0-.58-.477-1.043-1.05-1.043-.588 0-1.05.46-1.05 1.042v2.784l-1.646-1.646c-.41-.41-1.08-.41-1.48 0-.41.41-.41 1.08 0 1.49l3.007 3.015c.045.03.075.06.12.09v2.636l-3.605-2.367c-.477-.312-1.132-.186-1.444.298-.313.485-.18 1.133.305 1.453l4.58 3.016c.06.028.104.06.164.088v11.9c0 .58.462 1.04 1.05 1.04.573 0 1.05-.46 1.05-1.04v-11.9l.156-.09 4.594-3.015c.476-.32.61-.967.283-1.452z"/><path fill-rule="evenodd" clip-rule="evenodd" fill="#093" d="M440.1 405.328l-6.038-17.84-.126-.373c-.12-.365-.41-.432-.64-.388-.306.06-.373.29-.462.56l-6.32 18.65c-1.155 3.426 4.503 2.696 7.02 2.89 3.35-.267 7.997.707 6.567-3.5z"/><path fill="#033" d="M437.197 404.776c-.193-.298-.588-.372-.878-.18l-2.175 1.43v-1.592c.022-.016.044-.03.06-.053l1.832-1.83c.246-.246.246-.648 0-.887-.253-.253-.655-.253-.894 0l-.998.983v-1.69c0-.343-.283-.633-.64-.633-.35 0-.626.29-.626.633v1.69l-1.006-.983c-.238-.253-.64-.253-.894 0-.246.238-.246.64 0 .887l1.824 1.83c.022.023.045.038.075.054v1.593l-2.19-1.43c-.283-.193-.677-.12-.878.18-.186.29-.104.685.193.878l2.77 1.816c.03.03.067.046.104.06v7.21c0 .342.274.64.624.64.357 0 .64-.298.64-.64v-7.21c.03-.014.06-.028.098-.06l2.777-1.815c.29-.193.37-.588.177-.88z"/><path fill-rule="evenodd" clip-rule="evenodd" fill="#1F295C" d="M222.103 153.88h11.168v24.013h-11.167zM111.503 153.88h232.36v8.376h-232.36zM216.52 167.282h22.336v10.61H216.52z"/><path fill="#1F295C" d="M314.863 333.467c-1.675-2.48-5.063-3.15-7.565-1.467-6.612 4.468-16.768 7.908-29.016 10.38-.17-6.284-1.31-12.24-3.24-17.938v-.037c-2.396-7.073-6-13.7-10.423-19.984l-11.877 8.348c3.678 5.22 6.634 10.625 8.555 16.314h.007c1.668 4.937 2.562 10.14 2.48 15.666-12.89 1.66-27.164 2.472-41.593 2.472-16.59 0-33.275-1.08-48.22-3.142 0-5.28.895-10.26 2.496-14.996h.007c1.92-5.69 4.877-11.095 8.555-16.314l-11.876-8.347c-4.438 6.285-8.034 12.912-10.432 19.985v.037c-1.847 5.474-2.97 11.185-3.21 17.2-12.3-2.494-22.642-5.785-29.648-9.828-2.606-1.497-5.927-.604-7.416 2.003-1.504 2.59-.596 5.912 1.996 7.416 19.024 10.976 58.896 16.902 97.75 16.902 37.213 0 73.95-5.45 91.203-17.096 2.493-1.683 3.148-5.07 1.466-7.573z"/><path fill-rule="evenodd" clip-rule="evenodd" fill="#fff" d="M413.572 160.998h-22.725l-24.86 42.62c-14.692 1.146-44.602 5.107-63.424-3.41-17.35-7.85-34.013-14.832-48.577-20.067-34.474-12.41-63.974-16.477-93.832 10.895-15.792 14.476-25.688 35.28-25.688 58.384 0 43.736 35.524 81.703 79.186 79.187 23.417-1.348 45.605-6.776 60.624-20.745 16.872-15.695 35.24-32.055 53.088-42.427 26.23-15.234 33.685-15.62 52.828 3.515h32.672c-21.198-59.346-15.92-42.22.708-107.952z"/><path fill-rule="evenodd" clip-rule="evenodd" fill="#E6E6E6" d="M401.837 236.768H135.464c-.655 4.125-.998 8.347-.998 12.657 0 43.73 35.524 81.697 79.186 79.18 23.417-1.34 45.605-6.775 60.624-20.744 16.872-15.687 35.24-32.046 53.088-42.418 26.24-15.242 33.685-15.63 52.828 3.515h32.672c-5.19-14.543-8.786-24.483-11.027-32.19z"/><path fill-rule="evenodd" clip-rule="evenodd" fill="#DB0000" d="M290.247 216.433c-12.345 0-22.345 10-22.345 22.345 0 12.33 10 22.338 22.345 22.338 12.33 0 22.337-10.007 22.337-22.338 0-12.345-10.007-22.345-22.337-22.345z"/><path fill-rule="evenodd" clip-rule="evenodd" fill="#fff" d="M293.702 235.784v-7.952h-6.97v7.952h-7.966v6.977h7.966v7.97h6.97v-7.97h7.967v-6.976z"/><path fill-rule="evenodd" clip-rule="evenodd" fill="#99DBF0" d="M213.72 187.803c-39.07 1.653-63.573 27.09-61.995 78.897 78.717 7.52 89.558-33.418 104.45-71.496-17.766-6.537-29.188-7.952-42.456-7.4z"/><path fill-rule="evenodd" clip-rule="evenodd" fill="#70CCEB" d="M244.574 191.407l-76.185 76.187c63.698.47 74.01-37.186 87.785-72.39-4.185-1.534-8.012-2.785-11.6-3.797zM153.23 241.95l53.594-53.59c-28.517 3.463-48.1 20.947-53.595 53.59z"/><path fill-rule="evenodd" clip-rule="evenodd" fill="#99DBF0" d="M323.15 35.52H127.84C103.297 49.815 81.36 68.088 62.91 89.45c-.76 1.214-1.504 2.435-2.263 3.67h109.765c6.672 0 12.137-5.465 12.137-12.136 0-6.672-5.465-12.13-12.137-12.13h-65.448c.647-1.48 1.013-3.112 1.013-4.832 0-1.482-.283-2.92-.774-4.23H323.15c6.664 0 12.137-5.472 12.137-12.144 0-6.67-5.466-12.128-12.137-12.128z"/></svg>